<svg width="70" height="70" viewBox="0 0 70 70" fill="none" xmlns="http://www.w3.org/2000/svg">
<path d="M55.8667 16.9106L33.5625 11.9658C32.2815 11.6816 30.9655 11.914 29.8575 12.6203C28.7493 13.3266 27.9822 14.4207 27.6987 15.7024L27.0609 18.5801L26.6354 19.7862C26.3526 19.7183 26.0579 19.6819 25.7548 19.6819H20.32C18.2354 19.6819 16.54 21.3773 16.54 23.4619C16.54 23.8553 16.6009 24.2354 16.7129 24.5924H14.0612C11.9766 24.5924 10.2812 26.2878 10.2812 28.3724C10.2812 29.519 10.7951 30.5466 11.6029 31.2403C11.2872 31.7926 11.1052 32.431 11.1052 33.1114C11.1052 35.0588 12.5857 36.6667 14.4806 36.8697C14.4344 37.1049 14.4099 37.3478 14.4099 37.5963C14.4099 39.6809 16.1053 41.3763 18.1899 41.3763H19.0173L17.3219 46.1811C16.9627 47.2003 17.0573 48.3273 17.5816 49.2723C18.1066 50.2173 19.0124 50.8942 20.0687 51.128L44.673 56.5824C44.673 56.5824 44.6772 56.5831 44.68 56.5838L44.9711 56.6482H45.0789C45.1259 56.6531 45.1735 56.6573 45.2218 56.6608C45.2505 56.6629 45.2792 56.665 45.3078 56.6664H45.3296C45.4472 56.6727 45.5648 56.672 45.6824 56.6664H45.7495L47.9972 56.4095C48.1632 56.3906 48.3403 56.4305 48.4817 56.5194L50.1581 57.5729C50.7734 57.9593 51.4679 58.1546 52.1651 58.1546C52.7265 58.1546 53.2906 58.0279 53.8171 57.7731C54.9986 57.2005 55.7868 56.0791 55.9262 54.7743L59.0615 25.48C59.0741 25.3603 59.0818 25.2399 59.0825 25.1195L59.6019 22.7759C60.1884 20.1292 58.5127 17.4986 55.866 16.9113L55.8667 16.9106Z" fill="#EDEBDF"/>
<path d="M22.9735 38.574L21.9858 41.374L19.9621 47.1098C19.9579 47.1217 19.9551 47.1336 19.9516 47.1455C19.8774 47.3842 19.897 47.6411 20.0069 47.8651C20.0146 47.8805 20.0209 47.8966 20.0293 47.9113C20.0454 47.9407 20.0629 47.9687 20.0818 47.9953C20.0825 47.9967 20.0839 47.9981 20.0846 47.9995C20.0874 48.003 20.0902 48.0065 20.093 48.01C20.233 48.2032 20.4388 48.3397 20.674 48.3922L45.2769 53.8466C45.2902 53.8494 45.3035 53.8508 45.3175 53.8529C45.3343 53.8557 45.3511 53.8592 45.3672 53.8613C45.3854 53.8634 45.4029 53.8648 45.4211 53.8662C45.4295 53.8662 45.4379 53.8669 45.4463 53.8676C45.4477 53.8676 45.4491 53.8676 45.4505 53.8676C45.461 53.8676 45.4708 53.869 45.4813 53.869C45.4841 53.869 45.4869 53.869 45.4897 53.869C45.4988 53.869 45.5072 53.8669 45.5163 53.8669C45.5443 53.8662 45.5723 53.8662 45.6003 53.8627L47.197 53.68L47.6786 53.6247C48.4766 53.533 49.2907 53.7185 49.9711 54.1462L51.6462 55.199C51.684 55.2228 51.7232 55.2431 51.7631 55.2613C51.7771 55.2676 51.7918 55.2725 51.8058 55.2781C51.8324 55.2886 51.859 55.2991 51.8856 55.3075C51.9031 55.3131 51.9213 55.3166 51.9388 55.3208C51.9633 55.3264 51.9871 55.332 52.0116 55.3362C52.0312 55.339 52.0501 55.3411 52.0697 55.3432C52.0935 55.3453 52.1166 55.3474 52.1404 55.3481C52.1495 55.3481 52.1579 55.3502 52.167 55.3502C52.181 55.3502 52.1957 55.3481 52.2097 55.3481C52.2237 55.3481 52.2377 55.3467 52.2524 55.346C52.2783 55.3439 52.3035 55.3397 52.3294 55.3355C52.3427 55.3334 52.356 55.3313 52.3693 55.3285C52.3966 55.3229 52.4239 55.3152 52.4512 55.3068C52.4617 55.3033 52.4729 55.3012 52.4834 55.2977C52.5205 55.2851 52.5576 55.2704 52.5933 55.2529C52.5933 55.2529 52.594 55.2529 52.5947 55.2529C52.6269 55.2375 52.657 55.2193 52.6864 55.2011C52.692 55.1976 52.6983 55.1948 52.7039 55.1913C52.9223 55.0485 53.0735 54.8231 53.126 54.5669C53.1323 54.5368 53.1386 54.5067 53.1414 54.4759L56.2774 25.1802C56.2823 25.134 56.283 25.0885 56.2816 25.043C56.2816 25.0374 56.2816 25.0318 56.2816 25.0262C56.2795 24.98 56.2739 24.9352 56.2655 24.8911L56.8689 22.1688C57.1216 21.0292 56.3999 19.8966 55.2603 19.6439L32.9562 14.6991C32.9527 14.6984 32.9485 14.6977 32.945 14.697C32.8785 14.6823 32.8113 14.6711 32.7448 14.6634C32.7336 14.662 32.7217 14.662 32.7105 14.6606C32.6503 14.6543 32.5908 14.6494 32.5313 14.6487C32.5292 14.6487 32.5278 14.6487 32.5257 14.6487C32.1162 14.6424 31.7137 14.7551 31.3609 14.9798C31.0109 15.2031 30.7407 15.5167 30.5734 15.8863C30.5713 15.8912 30.5678 15.8961 30.5657 15.9017C30.5433 15.9514 30.5244 16.0032 30.5062 16.055C30.5006 16.0704 30.4936 16.0851 30.4887 16.1005C30.4719 16.1516 30.4586 16.2055 30.4453 16.2587C30.4411 16.2748 30.4355 16.2902 30.432 16.307L29.7572 19.3506L28.9935 21.515L27.4752 25.8186L27.0552 27.01L25.2562 32.1088L24.608 33.9449L23.6651 36.6168C23.6511 36.6168 23.6378 36.6147 23.6238 36.6147H18.189C17.9524 36.6147 17.7347 36.6987 17.5653 36.8387C17.5457 36.8548 17.5268 36.8723 17.5086 36.8905C17.3238 37.069 17.209 37.3182 17.209 37.5954C17.209 38.1365 17.6479 38.5754 18.189 38.5754H22.9735V38.574ZM51.3592 52.7056L51.0134 52.4879C50.1342 51.9349 49.1101 51.643 48.0762 51.643C47.869 51.643 47.6618 51.6549 47.4553 51.678L46.9345 51.7375L47.2453 50.8562L52.2223 36.7498L53.4354 33.3121L51.3599 52.7042L51.3592 52.7056ZM24.0739 41.3467L26.3279 34.9578L28.0268 30.1425L28.4006 29.0827L31.6241 19.947C31.6241 19.947 31.6255 19.9421 31.6262 19.9393C31.6318 19.9232 31.636 19.9071 31.6409 19.8903C31.6458 19.8735 31.6507 19.8574 31.6549 19.8406C31.6549 19.8378 31.6563 19.8357 31.657 19.8329L32.3444 16.7312C32.3563 16.6787 32.3885 16.6486 32.413 16.6332C32.4375 16.6178 32.4788 16.601 32.5313 16.6122L54.8354 21.557C54.9201 21.5759 54.9733 21.6592 54.9544 21.7439L54.267 24.8456C54.246 24.9394 54.2404 25.0325 54.2467 25.1235L53.1281 28.2945L45.1355 50.9479L44.8541 51.7459L22.179 46.7192L24.0746 41.3474L24.0739 41.3467Z" fill="#2E418E"/>
<path d="M14.4857 29.3506H24.6896C25.2307 29.3506 25.6696 28.9117 25.6696 28.3706C25.6696 27.931 25.3798 27.5586 24.9808 27.4347C24.8891 27.406 24.7911 27.3906 24.6896 27.3906H14.0601C13.519 27.3906 13.0801 27.8295 13.0801 28.3706C13.0801 28.8102 13.3699 29.1826 13.7689 29.3065C13.8606 29.3352 13.9586 29.3506 14.0601 29.3506H14.4857Z" fill="#2E418E"/>
<path d="M20.3198 24.4405H25.7546C26.2957 24.4405 26.7346 24.0016 26.7346 23.4605C26.7346 23.1224 26.5631 22.8242 26.3027 22.6478C26.1466 22.5421 25.9576 22.4805 25.7546 22.4805H20.3198C19.7787 22.4805 19.3398 22.9194 19.3398 23.4605C19.3398 23.6971 19.4238 23.9148 19.5638 24.0842C19.7437 24.3019 20.0153 24.4405 20.3198 24.4405Z" fill="#2E418E"/>
<path d="M20.807 33.9607C20.8546 33.9334 20.9001 33.9019 20.9428 33.8669C20.9624 33.8508 20.9813 33.8333 20.9995 33.8151C21.1843 33.6366 21.2991 33.3874 21.2991 33.1109C21.2991 32.6391 20.9652 32.245 20.5214 32.1519C20.4563 32.1379 20.3884 32.1309 20.3191 32.1309H14.8843C14.815 32.1309 14.7471 32.1386 14.682 32.1519C14.2375 32.245 13.9043 32.6391 13.9043 33.1109C13.9043 33.1788 13.9113 33.2446 13.9239 33.3083C14.0156 33.7549 14.4104 34.0909 14.8843 34.0909H20.3191C20.4969 34.0909 20.6635 34.044 20.807 33.9607Z" fill="#2E418E"/>
<path d="M37.0639 26.891L44.5357 28.5479C44.7821 28.6025 45.0278 28.6284 45.27 28.6284C46.8247 28.6284 48.2303 27.5497 48.5803 25.9705C48.7763 25.0864 48.616 24.1785 48.1295 23.4141C47.643 22.6504 46.8877 22.1212 46.0029 21.9252L38.5311 20.269C37.647 20.073 36.7391 20.2333 35.9747 20.7198C35.211 21.2063 34.6818 21.9616 34.4858 22.8457C34.2898 23.7298 34.4501 24.6377 34.9366 25.4021C35.4231 26.1658 36.1798 26.695 37.0639 26.891ZM36.4003 23.2699C36.4829 22.8968 36.7062 22.5783 37.0289 22.3725C37.3516 22.1667 37.7345 22.0995 38.1076 22.1821L45.5794 23.8383C45.9525 23.9209 46.2717 24.1442 46.4768 24.4669C46.6819 24.7896 46.7498 25.1725 46.6672 25.5456C46.5846 25.9187 46.3613 26.2372 46.0386 26.443C45.7166 26.6481 45.333 26.716 44.9599 26.6334L37.4881 24.9765C37.115 24.8939 36.7965 24.6706 36.5907 24.3479C36.3849 24.0252 36.3177 23.643 36.4003 23.2699Z" fill="#2E418E"/>
<path d="M37.5244 39.4519C36.4282 39.2013 35.2851 39.3056 34.3072 39.7466C33.3237 40.1897 32.5642 40.9422 32.168 41.8662L33.0087 42.2267C33.3139 41.5141 33.9089 40.9296 34.6824 40.581C35.0562 40.4123 35.4615 40.3073 35.8787 40.2611C35.976 40.6895 36.249 41.064 36.6361 41.2845L36.2497 42.975L37.1415 43.1787L37.5279 41.4882C37.9724 41.4581 38.3805 41.239 38.6549 40.8953C39.0112 41.1179 39.3297 41.3888 39.5936 41.7031C40.1389 42.3534 40.4203 43.1381 40.386 43.913L41.3002 43.9536C41.345 42.9498 40.988 41.9411 40.295 41.1151C39.6055 40.2933 38.622 39.7025 37.5251 39.4512L37.5244 39.4519Z" fill="#2E418E"/>
<path d="M30.4909 39.5413L31.3813 39.745C31.3827 39.738 31.5136 39.0037 31.8692 38.198C32.2899 37.2446 33.1278 36.5201 34.1687 36.2114L33.9083 35.3343C33.244 35.5317 32.6455 35.867 32.1485 36.3073C31.9693 35.9286 31.7915 35.3469 31.9399 34.6966L32.7183 31.2911C32.7848 30.9992 32.999 30.7885 33.2909 30.7269C33.5856 30.6646 33.8698 30.7717 34.0511 31.0139C34.9541 32.22 35.5498 33.8202 35.8228 35.769L35.8662 36.0812L38.1748 36.609L40.4834 37.1368L40.6584 36.8743C41.7511 35.2377 42.9831 34.0554 44.3208 33.3617C44.5889 33.2224 44.892 33.249 45.13 33.4338C45.3659 33.6165 45.4674 33.8993 45.4002 34.1912L44.6218 37.5967C44.4734 38.247 44.0604 38.6929 43.7342 38.9568C43.4773 38.3443 43.0846 37.7822 42.5715 37.316L41.9562 37.9929C42.7591 38.723 43.1994 39.7394 43.1637 40.781C43.1336 41.6609 42.9327 42.3791 42.9306 42.3861L43.3758 42.4876L43.821 42.5891C43.8301 42.5576 44.0436 41.8114 44.0779 40.8118C44.0884 40.5003 44.0646 40.1909 44.01 39.8878C44.4622 39.5903 45.256 38.9267 45.5136 37.8004L46.292 34.3949C46.4383 33.7565 46.2073 33.1104 45.6893 32.71C45.1692 32.3075 44.4832 32.2466 43.8987 32.5497C42.4966 33.2777 41.2114 34.4726 40.0753 36.105L38.3778 35.7172L36.6803 35.3294C36.366 33.3652 35.7283 31.7307 34.7819 30.4658C34.3871 29.9387 33.7424 29.6958 33.0998 29.8323C32.4593 29.9681 31.9714 30.449 31.8251 31.0881L31.0467 34.4936C30.7891 35.6199 31.2161 36.5628 31.494 37.0269C31.3134 37.2761 31.1573 37.5442 31.0313 37.8298C30.6274 38.7454 30.4958 39.5098 30.4902 39.542L30.4909 39.5413Z" fill="#2E418E"/>
<path d="M41.6765 40.1437C41.365 40.0723 41.0549 40.2669 40.9835 40.5784C40.9121 40.8899 41.1067 41.2 41.4182 41.2714C41.7297 41.3428 42.0398 41.1475 42.1112 40.8367C42.1826 40.5252 41.988 40.2151 41.6765 40.1437Z" fill="#2E418E"/>
<path d="M33.9198 38.9636C33.9912 38.6521 33.7966 38.342 33.4851 38.2706C33.1736 38.1992 32.8635 38.3938 32.7921 38.7053C32.7207 39.0168 32.916 39.3269 33.2268 39.3983C33.5383 39.4697 33.8484 39.2751 33.9198 38.9636Z" fill="#2E418E"/>
</svg>
