<svg width="123" height="70" viewBox="0 0 123 70" fill="none" xmlns="http://www.w3.org/2000/svg">
<path d="M81.694 26.0282C81.694 24.5422 81.694 23.0582 81.694 21.5722C81.694 14.822 81.694 8.07376 81.694 1.32357C81.694 0.0868803 81.7095 0.0732488 82.9384 0.0713013C84.9172 0.0693538 86.8978 0.096618 88.8765 0.0576671C89.6692 0.0420867 89.9593 0.31085 89.9574 1.12492C89.9399 17.3168 89.9379 33.5106 89.9613 49.7025C89.9613 50.5458 89.6575 50.7562 88.8804 50.7406C86.8374 50.7016 84.7906 50.6977 82.7476 50.7406C81.9218 50.7581 81.5537 50.4329 81.2908 49.6655C78.535 41.6319 75.7442 33.61 72.9631 25.5841C72.8696 25.3134 72.7645 25.0466 72.5074 24.7837C72.4879 25.0038 72.4509 25.2258 72.4509 25.4459C72.449 33.462 72.4334 41.4761 72.4723 49.4922C72.4762 50.4796 72.2036 50.7854 71.2142 50.7484C69.2375 50.6744 67.2549 50.7036 65.2762 50.7386C64.5166 50.7523 64.1777 50.5711 64.1797 49.7103C64.2031 33.5184 64.2011 17.3246 64.1836 1.13272C64.1836 0.303061 64.5108 0.0518282 65.2781 0.061566C67.2899 0.0849365 69.3037 0.106356 71.3136 0.0518247C72.2445 0.0265066 72.6165 0.462758 72.895 1.27099C75.6566 9.30266 78.4455 17.3265 81.2285 25.3504C81.3103 25.588 81.4077 25.8198 81.4992 26.0535C81.5654 26.0438 81.6297 26.034 81.6959 26.0243L81.694 26.0282Z" fill="#EDEBDF"/>
<path d="M0.921864 25.3163C0.921864 17.3022 0.937444 9.28806 0.902388 1.27391C0.898493 0.305984 1.15168 -0.00952015 2.15466 0.000217575C7.11895 0.0489062 12.0832 0.0177505 17.0475 0.0235931C21.4763 0.0294357 24.6508 3.20198 24.6624 7.63265C24.6702 10.813 24.7442 13.9953 24.6293 17.1698C24.5748 18.6986 24.1892 20.2216 23.8717 21.7309C23.7763 22.1866 23.712 22.4593 24.1152 22.806C25.9537 24.3815 26.7716 26.4245 26.7677 28.8297C26.7599 33.535 26.7736 38.2383 26.7638 42.9436C26.7541 47.4638 23.5523 50.6598 19.0262 50.6656C13.3803 50.6753 7.73438 50.6461 2.09039 50.689C1.12051 50.6968 0.900439 50.3618 0.904334 49.4542C0.933547 41.407 0.921864 33.3617 0.921864 25.3144V25.3163ZM9.26125 42.2892C11.8106 42.2892 14.2995 42.3223 16.7885 42.2717C17.7039 42.2522 18.3797 41.4673 18.3894 40.4975C18.4147 37.3833 18.4186 34.2692 18.3855 31.1551C18.3758 30.1618 17.7603 29.4159 16.7846 29.3867C14.2995 29.3108 11.8086 29.3614 9.2632 29.3614V42.2911L9.26125 42.2892ZM9.25736 8.39608V21.0259C11.1523 21.0259 12.9947 21.0746 14.8312 21.0045C15.694 20.9714 16.3425 20.1885 16.3523 19.2556C16.3854 16.2057 16.3854 13.1559 16.3562 10.108C16.3464 9.142 15.6453 8.43114 14.6949 8.40777C12.9168 8.36492 11.1367 8.39608 9.2593 8.39608H9.25736Z" fill="#EDEBDF"/>
<path d="M58.3547 22.5533C58.3547 29.3347 58.3547 36.116 58.3547 42.8974C58.3547 47.6845 55.2191 50.8278 50.4398 50.8336C47.0979 50.8375 43.7559 50.8395 40.4139 50.8336C35.7261 50.8239 32.5925 47.7078 32.5886 43.022C32.5809 29.1672 32.5847 15.3143 32.5867 1.45949C32.5867 0.197476 32.5906 0.195525 33.8954 0.195525C35.843 0.195525 37.7905 0.244216 39.7342 0.174105C40.6671 0.140996 40.8696 0.474024 40.8696 1.34652C40.8462 14.1633 40.8521 26.9782 40.8521 39.7949C40.8521 41.9567 41.3779 42.4767 43.5631 42.4767C44.9263 42.4767 46.2877 42.4787 47.651 42.4767C49.4797 42.4728 50.064 41.8769 50.0659 40.0053C50.0659 27.2216 50.0659 14.4379 50.0659 1.65424C50.0659 0.683064 50.5645 0.197474 51.5616 0.197474C53.443 0.197474 55.3262 0.240319 57.2056 0.177998C58.1093 0.148784 58.3761 0.438973 58.3702 1.33874C58.3391 8.41222 58.3527 15.4857 58.3527 22.5572L58.3547 22.5533Z" fill="#EDEBDF"/>
<path d="M113.538 42.3204C110.388 42.3204 107.374 42.3204 104.357 42.3204C104.201 42.3204 104.043 42.3477 103.786 42.3711C103.636 44.3284 103.512 46.2603 103.336 48.1884C103.066 51.1798 103.593 50.6111 100.754 50.6618C99.1959 50.689 97.6359 50.6092 96.0818 50.6871C95.0846 50.7377 94.9152 50.3541 94.9444 49.4465C95.2054 41.7342 96.409 34.1836 98.3 26.6973C100.421 18.3053 102.261 9.8432 104.178 1.40254C104.404 0.407343 104.762 -0.00943005 105.845 0.0412061C107.853 0.134688 109.868 0.0957369 111.878 0.0528909C112.613 0.0373105 112.916 0.341128 113.072 1.01498C115.847 13.0528 118.677 25.0769 121.38 37.1302C121.852 39.2316 121.811 41.448 121.982 43.6136C122.138 45.5865 122.233 47.5652 122.415 49.5342C122.49 50.3599 122.305 50.7085 121.394 50.6832C119.318 50.6248 117.24 50.6384 115.164 50.6793C114.404 50.6949 114.136 50.4183 114.097 49.6763C113.986 47.6353 113.816 45.5982 113.666 43.5591C113.637 43.1774 113.586 42.7957 113.534 42.3146L113.538 42.3204ZM112.435 34.0122C111.201 28.7383 109.987 23.55 108.774 18.3618C108.71 18.3579 108.645 18.352 108.583 18.3481C107.364 23.5578 106.147 28.7655 104.92 34.0122H112.437H112.435Z" fill="#EDEBDF"/>
<path d="M60.5333 66.4264H55.0452C55.1192 67.447 55.6431 68.0234 56.5058 68.3039C57.4991 68.6272 58.2684 68.2591 59.0863 67.0808C59.5323 67.2171 60.0114 67.3632 60.4769 67.5073C60.3308 69.0673 58.3813 70.4092 56.0968 69.8833C53.9662 69.3926 52.7451 67.1918 53.2632 64.8431C53.7364 62.6891 55.719 61.4407 57.8983 61.9237C59.8595 62.36 60.9871 64.2121 60.5333 66.4264ZM58.7182 65.0339C58.5722 63.9102 57.9295 63.3318 56.9226 63.3454C55.9566 63.3591 55.2828 63.9959 55.164 65.0339H58.7163H58.7182Z" fill="#EDEBDF"/>
<path d="M46.2697 69.7433C45.5841 69.6186 44.7642 70.2009 44.5227 69.3771C43.5665 69.5777 42.655 69.9146 41.7436 69.9205C40.5517 69.9283 39.6714 68.9409 39.5857 67.8152C39.5 66.6915 40.1446 65.7819 41.3463 65.4723C42.0961 65.2775 42.8848 65.2405 43.6366 65.0497C43.9209 64.9776 44.3611 64.668 44.3552 64.479C44.3436 64.1558 44.1118 63.7273 43.8391 63.5481C42.9433 62.96 41.9773 63.4079 41.3385 64.6952C40.8438 64.5862 40.3258 64.4713 39.6617 64.3252C39.8837 63.8305 39.9986 63.4274 40.2226 63.1002C41.0074 61.9472 42.731 61.5032 44.3611 61.9901C45.6173 62.366 46.2599 63.3397 46.2677 64.9172C46.2755 66.4967 46.2677 68.0781 46.2677 69.7433H46.2697ZM44.3377 66.2513C43.6385 66.3565 42.9959 66.4169 42.3687 66.5532C41.7728 66.6837 41.2431 67.0887 41.504 67.6983C41.6676 68.082 42.2947 68.4735 42.729 68.4929C43.8742 68.5455 44.439 67.7178 44.3377 66.2494V66.2513Z" fill="#EDEBDF"/>
<path d="M84.4247 65.772C84.4656 63.4681 86.1755 61.7776 88.4405 61.799C90.7756 61.8224 92.4797 63.6356 92.4154 66.0272C92.3512 68.3759 90.6159 70.0352 88.2828 69.9807C85.9749 69.9281 84.3818 68.1889 84.4247 65.772ZM90.5322 65.8714C90.5263 64.4691 89.6499 63.4973 88.3938 63.5012C87.1473 63.507 86.2709 64.4944 86.269 65.8928C86.269 67.2775 87.1532 68.3077 88.3684 68.333C89.6246 68.3603 90.538 67.3203 90.5322 65.8714Z" fill="#EDEBDF"/>
<path d="M81.969 66.9221C82.4306 67.0877 82.9097 67.261 83.3829 67.4324C82.9856 69.1949 81.3926 70.1804 79.371 69.9525C77.4098 69.7324 75.9277 67.9855 75.9297 65.8919C75.9297 63.7827 77.3397 62.1214 79.373 61.8332C81.2582 61.5664 82.8961 62.583 83.344 64.3728C82.8844 64.5481 82.4131 64.7292 81.9535 64.9064C80.5999 63.3776 79.4723 63.1303 78.4732 64.1177C77.5306 65.0525 77.5948 66.9338 78.5998 67.7985C79.6437 68.6964 80.855 68.3964 81.971 66.9221H81.969Z" fill="#EDEBDF"/>
<path d="M38.3281 64.391C37.8666 64.5624 37.3914 64.7416 36.9279 64.913C35.8684 63.5653 35.2062 63.2712 34.1838 63.6665C33.2528 64.0268 32.7698 64.9032 32.8341 66.1146C32.8906 67.1682 33.4846 67.9648 34.4038 68.214C35.4068 68.4867 36.1313 68.1322 36.9395 66.9092C37.4147 67.0806 37.9192 67.2598 38.4158 67.4389C37.9289 69.2638 36.2871 70.2298 34.2558 69.9396C32.3063 69.6591 30.8905 67.8752 30.9469 65.7699C31.0054 63.614 32.503 61.9916 34.5986 61.8125C36.4429 61.6547 38.0068 62.7064 38.3281 64.391Z" fill="#EDEBDF"/>
<path d="M48.8363 69.6912V63.7142C48.3923 63.683 48.0417 63.6577 47.6094 63.6265V62.0743C48.0028 62.0393 48.3787 62.0042 48.7623 61.9711C48.8519 61.3051 48.8714 60.6526 49.0369 60.0392C49.3875 58.7304 50.8209 57.8599 52.0654 58.3195C52.412 58.448 52.5113 59.2426 52.7528 59.7938C50.8404 59.9905 50.6729 60.1989 50.8404 61.9711C51.3584 62.0003 51.892 62.0296 52.488 62.0627V63.611C51.9641 63.6441 51.4285 63.6772 50.7956 63.7181V69.6912H48.8402H48.8363Z" fill="#EDEBDF"/>
<path d="M68.1766 69.7232H66.416V62.1824C67.6858 61.787 68.0286 61.9 68.1649 62.6809C68.9731 62.3927 69.8028 62.0967 70.7766 61.75V63.8144C70.5954 63.8319 70.4416 63.8534 70.2897 63.8592C68.8563 63.9215 68.2428 64.496 68.1863 65.9528C68.1396 67.1759 68.1766 68.4009 68.1766 69.7213V69.7232Z" fill="#EDEBDF"/>
<path d="M74.0929 69.7164H72.418V62.0918H74.0929V69.7164Z" fill="#EDEBDF"/>
<path d="M73.2647 60.5656C72.5558 60.4799 72.1254 60.1021 72.0728 59.3873C72.0261 58.729 72.6357 58.135 73.294 58.1487C73.9522 58.1604 74.5618 58.7777 74.4858 59.4204C74.4041 60.1215 73.9678 60.4994 73.2647 60.5656Z" fill="#EDEBDF"/>
<path d="M59.5395 58.8231C58.3242 60.4318 57.2368 61.155 56.2773 60.9927C57.0077 58.8251 57.329 58.603 59.5395 58.8231Z" fill="#EDEBDF"/>
</svg>
