<svg width="81" height="81" viewBox="0 0 81 81" fill="none" xmlns="http://www.w3.org/2000/svg">
<path d="M62.5149 33.238C62.1909 28.6212 59.9637 24.7724 56.2421 22.4012C52.6925 20.1396 47.8805 20.1396 43.0413 22.4012C42.2493 22.7708 41.4677 23.198 40.7021 23.6732C39.3349 22.6828 37.9285 21.9044 36.4965 21.3556C32.1757 19.698 27.7461 20.0908 24.0245 22.4612C20.4749 24.7228 18.4413 29.0836 18.4453 34.4252C18.4493 39.014 19.9597 44.0132 22.5909 48.1428C25.7285 53.0684 29.5133 56.6596 33.5341 58.5284C34.1461 58.8132 34.7605 59.0556 35.3741 59.2596C36.7325 59.8356 38.2301 60.1292 39.8205 60.1292C40.6125 60.1292 41.4277 60.0564 42.2597 59.9108C47.9829 58.9076 53.9237 54.5412 57.7621 48.5164C61.1949 43.1276 62.8389 37.8444 62.5157 33.2372L62.5149 33.238Z" fill="#EDEBDF"/>
<path d="M52.2315 50.4031C53.2795 49.2791 54.2435 48.0439 55.0843 46.7247C55.1723 46.5863 55.2595 46.4479 55.3443 46.3095C58.2291 41.6527 59.6115 37.1935 59.3443 33.3887C59.0931 29.8087 57.3883 26.8399 54.5435 25.0271C51.9355 23.3655 48.2443 23.4391 44.4163 25.2271C44.0227 25.4111 43.6323 25.6143 43.2451 25.8287C42.3051 26.3511 41.3859 26.9591 40.5059 27.6439C40.3131 27.4695 40.1187 27.3007 39.9235 27.1367C39.2635 26.5823 38.5947 26.0903 37.9179 25.6607C37.0635 25.1183 36.1979 24.6767 35.3259 24.3423C35.0907 24.2519 34.8547 24.1703 34.6187 24.0951C31.4987 23.1063 28.3643 23.4743 25.7195 25.1591C23.1115 26.8207 21.6179 30.1967 21.6211 34.4215C21.6227 36.4199 21.9555 38.5127 22.5771 40.5591C23.1987 42.6063 24.1091 44.6071 25.2651 46.4223C25.2651 46.4231 25.2667 46.4239 25.2667 46.4255C25.3851 46.6111 25.5043 46.7943 25.6243 46.9751C25.6555 47.0215 25.6859 47.0687 25.7171 47.1151C25.8371 47.2943 25.9571 47.4711 26.0779 47.6455C26.0803 47.6495 26.0835 47.6535 26.0859 47.6575C26.2059 47.8303 26.3275 48.0007 26.4491 48.1687C26.4819 48.2135 26.5147 48.2591 26.5475 48.3039C26.6691 48.4703 26.7907 48.6343 26.9131 48.7959C26.9187 48.8031 26.9243 48.8103 26.9291 48.8175C27.0507 48.9775 27.1731 49.1343 27.2963 49.2895C27.3307 49.3327 27.3651 49.3759 27.3995 49.4191C27.5219 49.5727 27.6451 49.7239 27.7691 49.8727C27.7771 49.8831 27.7859 49.8927 27.7939 49.9031C27.8627 49.9855 27.9315 50.0647 28.0011 50.1455C28.0555 50.2095 28.1091 50.2735 28.1643 50.3367C28.1995 50.3775 28.2355 50.4183 28.2715 50.4591C28.3955 50.6007 28.5203 50.7399 28.6451 50.8767C28.6563 50.8887 28.6667 50.9007 28.6779 50.9119C28.8011 51.0463 28.9251 51.1775 29.0491 51.3079C29.0867 51.3471 29.1235 51.3855 29.1611 51.4247C29.2859 51.5543 29.4115 51.6815 29.5379 51.8063C29.5507 51.8191 29.5635 51.8311 29.5763 51.8439C29.7011 51.9663 29.8259 52.0863 29.9507 52.2047C29.9891 52.2407 30.0275 52.2767 30.0659 52.3127C30.1923 52.4303 30.3187 52.5463 30.4459 52.6591C30.4611 52.6727 30.4763 52.6855 30.4915 52.6991C30.6163 52.8095 30.7419 52.9175 30.8675 53.0247C30.9067 53.0575 30.9459 53.0903 30.9851 53.1231C31.1139 53.2303 31.2427 53.3367 31.3723 53.4391C31.3867 53.4503 31.4003 53.4615 31.4147 53.4727C31.5419 53.5735 31.6691 53.6711 31.7971 53.7671C31.8371 53.7967 31.8763 53.8263 31.9163 53.8559C32.0467 53.9527 32.1771 54.0479 32.3083 54.1399C32.3219 54.1495 32.3363 54.1591 32.3499 54.1687C32.4787 54.2583 32.6075 54.3455 32.7371 54.4311C32.7771 54.4575 32.8163 54.4831 32.8563 54.5087C32.9899 54.5951 33.1227 54.6807 33.2563 54.7623C33.2683 54.7695 33.2803 54.7767 33.2923 54.7839C33.4235 54.8639 33.5547 54.9407 33.6867 55.0159C33.7259 55.0383 33.7643 55.0607 33.8035 55.0823C33.9395 55.1591 34.0763 55.2335 34.2123 55.3047C34.2219 55.3095 34.2315 55.3151 34.2419 55.3199C34.3755 55.3895 34.5091 55.4559 34.6427 55.5207C34.6811 55.5391 34.7195 55.5575 34.7579 55.5759C34.8971 55.6415 35.0363 55.7063 35.1763 55.7671C35.1827 55.7703 35.1891 55.7727 35.1955 55.7751C35.3323 55.8343 35.4683 55.8903 35.6051 55.9447C35.6419 55.9591 35.6795 55.9743 35.7163 55.9887C35.8579 56.0439 35.9995 56.0967 36.1411 56.1463C36.1451 56.1479 36.1483 56.1487 36.1523 56.1503C36.2555 56.1863 36.3587 56.2183 36.4619 56.2519C36.4979 56.2631 36.5339 56.2759 36.5707 56.2871C36.6067 56.2983 36.6427 56.3095 36.6795 56.3207C36.8219 56.3639 36.9651 56.4047 37.1075 56.4423C37.1099 56.4423 37.1115 56.4431 37.1139 56.4439C37.2203 56.4719 37.3259 56.4959 37.4323 56.5207C37.4419 56.5239 37.4523 56.5263 37.4619 56.5295C38.2035 56.7447 38.9995 56.8551 39.8419 56.8551C40.4491 56.8551 41.0787 56.7983 41.7291 56.6847C41.7699 56.6775 41.8107 56.6687 41.8515 56.6607C41.8531 56.6607 41.8555 56.6607 41.8571 56.6599C41.9619 56.6407 42.0667 56.6207 42.1715 56.5991C42.1747 56.5991 42.1779 56.5983 42.1811 56.5975C42.3163 56.5687 42.4515 56.5367 42.5867 56.5031C42.5875 56.5031 42.5891 56.5031 42.5899 56.5031C42.6635 56.4847 42.7363 56.4655 42.8091 56.4455C42.8155 56.4439 42.8219 56.4423 42.8283 56.4399C42.8331 56.4383 42.8379 56.4375 42.8427 56.4359C42.8435 56.4359 42.8451 56.4359 42.8459 56.4351C46.0923 55.5623 49.4587 53.3751 52.2315 50.4023V50.4031ZM44.4331 53.3103C44.3987 53.3623 44.3603 53.4127 44.3155 53.4591C44.2539 53.5239 44.1859 53.5791 44.1147 53.6263C43.9987 53.7023 43.8715 53.7551 43.7395 53.7831C43.6683 53.7983 43.5955 53.8071 43.5227 53.8079C43.5155 53.8079 43.5091 53.8087 43.5019 53.8087C43.2251 53.8087 42.9483 53.7071 42.7323 53.5023C42.6507 53.4247 42.5683 53.3455 42.4859 53.2671C42.4675 53.2495 42.4483 53.2311 42.4299 53.2135C41.6427 52.4607 40.8395 51.6631 40.0547 50.8159C39.5483 50.2687 39.0507 49.7007 38.5691 49.1119C37.1083 47.3255 35.8059 45.3439 34.9291 43.1375C34.8075 42.8311 34.6915 42.5215 34.5779 42.2127C34.4259 41.7983 34.2787 41.3847 34.1355 40.9791C34.1083 40.9031 34.0819 40.8287 34.0555 40.7527C33.8587 40.1959 33.6627 39.6487 33.4563 39.1159C33.2667 38.6279 33.0659 38.1527 32.8475 37.6903C32.8459 37.6863 32.8443 37.6831 32.8419 37.6791C32.6259 37.2223 32.3923 36.7775 32.1275 36.3511C31.7291 35.7087 31.3027 35.0943 30.8483 34.5031C29.4595 32.6983 27.7987 31.1231 25.8187 29.7263C25.7443 29.6735 25.6715 29.6207 25.5963 29.5687C25.3683 29.4111 25.2171 29.1839 25.1507 28.9351C25.0691 28.6295 25.1163 28.2911 25.3099 28.0103C25.5395 27.6775 25.9179 27.5087 26.2939 27.5295C26.4931 27.5407 26.6915 27.6031 26.8675 27.7247C26.9955 27.8135 27.1219 27.9039 27.2483 27.9943C29.0659 29.2943 30.6699 30.7759 32.0435 32.4223C32.7707 33.2935 33.4347 34.2095 34.0307 35.1703C34.0491 35.1999 34.0651 35.2303 34.0827 35.2591C34.0827 35.2591 34.0835 35.2607 34.0843 35.2615C34.3163 35.6423 34.5291 36.0303 34.7243 36.4239C34.9387 36.8567 35.1339 37.2967 35.3163 37.7391C35.4827 38.1431 35.6395 38.5495 35.7891 38.9567C35.9467 39.3839 36.0971 39.8103 36.2467 40.2335C36.4899 40.9223 36.7411 41.6335 37.0099 42.3111C37.7307 44.1271 38.7963 45.7975 40.0107 47.3319C40.4875 47.9343 40.9867 48.5159 41.4979 49.0767C42.4083 50.0743 43.3539 51.0079 44.2715 51.8767C44.3347 51.9367 44.3883 52.0031 44.4347 52.0727C44.4987 52.1695 44.5459 52.2743 44.5771 52.3831C44.6651 52.6927 44.6179 53.0335 44.4323 53.3111L44.4331 53.3103ZM46.1035 34.6463C45.9451 34.3751 45.7819 34.1063 45.6131 33.8407C44.7059 32.4167 43.7547 31.1271 42.7707 29.9799C42.5523 29.7255 42.3323 29.4783 42.1115 29.2375C42.9947 28.5703 43.9163 27.9871 44.8571 27.5071C45.0259 27.4207 45.1955 27.3359 45.3651 27.2567C47.0587 26.4655 48.6899 26.0671 50.1395 26.0671C51.3587 26.0671 52.4499 26.3495 53.3403 26.9167C53.3707 26.9359 53.4003 26.9559 53.4299 26.9759C53.1203 27.1951 52.8147 27.4183 52.5163 27.6479C50.8771 28.9071 49.4131 30.3111 48.1339 31.8479C47.3939 32.7375 46.7155 33.6711 46.1027 34.6471L46.1035 34.6463ZM48.8859 50.5407H48.8851C48.9227 50.4183 48.9595 50.2943 48.9939 50.1679C48.9955 50.1631 48.9963 50.1591 48.9979 50.1551C49.1083 49.7447 49.1979 49.3199 49.2691 48.8855C49.5419 47.2207 49.5315 45.3927 49.2579 43.5111C49.1947 43.0767 49.1179 42.6399 49.0267 42.2007C49.0267 42.1967 49.0251 42.1935 49.0243 42.1895C49.0075 42.1095 48.9891 42.0295 48.9715 41.9503C48.6115 40.3023 48.0595 38.6367 47.3307 37.0223C47.5139 36.6591 47.7091 36.3031 47.9227 35.9575C48.3675 35.2399 48.8443 34.5535 49.3539 33.8951C50.7419 32.1023 52.3803 30.5199 54.3059 29.1039C54.5347 28.9359 54.7651 28.7695 55.0019 28.6063C55.0539 28.5703 55.1011 28.5295 55.1451 28.4871C57.8235 31.6375 58.4091 37.3343 53.1939 45.5207C53.0251 45.7855 52.8507 46.0455 52.6723 46.3023C51.5659 47.8919 50.2747 49.3271 48.8843 50.5407H48.8859Z" fill="#2E418E"/>
</svg>
