<svg width="93" height="90" viewBox="0 0 93 90" fill="none" xmlns="http://www.w3.org/2000/svg">
<path d="M5.26263 72.8052H1.586V70.6062H5.07756V69.1807H1.586V67.2361H5.17588V65.8105H0.0722656V74.2308H5.26263V72.8052Z" fill="#EDEBDF"/>
<path d="M13.5145 65.8105H11.6856L9.71501 68.5185L7.73574 65.8105H5.90682L8.76369 69.7243L5.46875 74.2308H7.29766L9.71501 70.9402L12.1237 74.2308H13.9526L10.6577 69.7243L13.5145 65.8105Z" fill="#EDEBDF"/>
<path d="M16.1329 71.1542H17.3835C19.5406 71.1542 20.8288 70.1537 20.8288 68.4766C20.8288 66.7995 19.5406 65.8105 17.3835 65.8105H14.6191V74.2308H16.1329V71.1556V71.1542ZM19.2717 68.4766C19.2717 68.7889 19.2717 69.7387 17.4384 69.7387H16.1329V67.2361H17.4384C19.2717 67.2361 19.2717 68.1368 19.2717 68.4766Z" fill="#EDEBDF"/>
<path d="M22.2402 65.8105V74.2308H27.3887V72.8052H23.7525V65.8105H22.2402Z" fill="#EDEBDF"/>
<path d="M35.5148 70.0212C35.5148 67.5576 33.8131 65.7012 31.5562 65.7012C29.2993 65.7012 27.5977 67.559 27.5977 70.0212C27.5977 72.4833 29.2993 74.3412 31.5562 74.3412C33.8131 74.3412 35.5148 72.4848 35.5148 70.0212ZM31.5562 67.1267C32.749 67.1267 33.9577 68.1214 33.9577 70.0212C33.9577 71.9209 32.749 72.9142 31.5562 72.9142C30.3634 72.9142 29.1548 71.9195 29.1548 70.0212C29.1548 68.1229 30.3634 67.1267 31.5562 67.1267Z" fill="#EDEBDF"/>
<path d="M43.1602 68.3681C43.1602 66.7431 41.9688 65.8105 39.8927 65.8105H37.1602V74.2308H38.6739V70.9243C38.6739 70.9243 39.9418 70.9243 39.9664 70.9243L41.8763 74.2308H43.6257L41.5452 70.6669C42.592 70.278 43.1616 69.4785 43.1616 68.3667L43.1602 68.3681ZM41.603 68.3681C41.603 68.7093 41.603 69.5103 39.9462 69.5103H38.6724V67.2375H39.9462C41.4064 67.2375 41.603 67.8101 41.603 68.3696V68.3681Z" fill="#EDEBDF"/>
<path d="M49.4127 71.8337L50.3004 74.2308H51.9038L48.7679 65.8105H46.8522L43.7148 74.2308H45.3197L46.2059 71.8337H49.4112H49.4127ZM46.738 70.4067L47.8107 67.5209L48.8835 70.4067H46.738Z" fill="#EDEBDF"/>
<path d="M55.2562 65.8105H52.875V74.2308H55.2562C57.9338 74.2308 59.6629 72.5783 59.6629 70.0207C59.6629 67.4631 57.9338 65.8105 55.2562 65.8105ZM54.3887 72.8052V67.2361H55.1478C57.1111 67.2361 58.1073 68.173 58.1073 70.0207C58.1073 71.8684 57.1111 72.8052 55.1478 72.8052H54.3887Z" fill="#EDEBDF"/>
<path d="M64.7613 74.3412C67.0182 74.3412 68.7198 72.4848 68.7198 70.0212C68.7198 67.5576 67.0182 65.7012 64.7613 65.7012C62.5044 65.7012 60.8027 67.559 60.8027 70.0212C60.8027 72.4833 62.5044 74.3412 64.7613 74.3412ZM64.7613 67.1282C65.9541 67.1282 67.1627 68.1229 67.1627 70.0226C67.1627 71.9224 65.9541 72.9156 64.7613 72.9156C63.5685 72.9156 62.3598 71.9209 62.3598 70.0226C62.3598 68.1243 63.5685 67.1282 64.7613 67.1282Z" fill="#EDEBDF"/>
<path d="M76.3613 68.3681C76.3613 66.7431 75.17 65.8105 73.0939 65.8105H70.3613V74.2308H71.8736V70.9243C71.8736 70.9243 73.143 70.9243 73.1661 70.9243L75.076 74.2308H76.8254L74.7449 70.6669C75.7917 70.278 76.3613 69.4785 76.3613 68.3667V68.3681ZM74.8057 68.3681C74.8057 68.7093 74.8057 69.5103 73.1488 69.5103H71.8736V67.2375H73.1488C74.609 67.2375 74.8057 67.8101 74.8057 68.3696V68.3681Z" fill="#EDEBDF"/>
<path d="M83.2071 67.2361V65.8105H78.1035V74.2308H83.2953V72.8052H79.6158V70.6062H83.1088V69.1807H79.6158V67.2361H83.2071Z" fill="#EDEBDF"/>
<path d="M88.6343 69.2491L87.6151 68.9874C86.2691 68.6448 86.1577 68.3542 86.1577 68.0607C86.1577 67.5012 86.7534 67.1267 87.6397 67.1267C88.669 67.1267 89.3052 67.6371 89.3862 68.5262L89.4223 68.9209H90.9476L90.9071 68.4511C90.764 66.7797 89.4657 65.7012 87.5963 65.7012C85.8888 65.7012 84.6021 66.7262 84.6021 68.0838C84.6021 69.625 85.9409 70.1585 87.1033 70.452L88.1558 70.7267C89.5828 71.0925 89.5828 71.6376 89.5828 71.8168C89.5828 72.7725 88.5172 72.9156 87.8811 72.9156C86.8633 72.9156 86.0103 72.1219 85.938 71.1084L85.9091 70.705H84.3809L84.4156 71.1706C84.55 73.0082 86.0175 74.3412 87.9028 74.3412C89.9066 74.3412 91.15 73.3739 91.15 71.8168C91.15 70.5301 90.3274 69.6901 88.6343 69.2506V69.2491Z" fill="#EDEBDF"/>
<path d="M2.45347 81.5801H0.0722656V90.0003H2.45347C5.13106 90.0003 6.86021 88.3478 6.86021 85.7902C6.86021 83.2326 5.13106 81.5801 2.45347 81.5801ZM1.58455 88.5748V83.0056H2.34504C4.30841 83.0056 5.30455 83.9425 5.30455 85.7902C5.30455 87.6379 4.30841 88.5748 2.34504 88.5748H1.58455Z" fill="#EDEBDF"/>
<path d="M10.0279 86.3757H13.5195V84.9502H10.0279V83.0056H13.6178V81.5801H8.51562V90.0003H13.706V88.5748H10.0279V86.3757Z" fill="#EDEBDF"/>
<path d="M91.5651 51.9152C91.3815 51.5913 72.793 18.8198 66.4186 8.03277C63.4461 3.00289 58.4552 0 53.0711 0H52.9728C47.6321 0.0361446 42.7526 3.00867 39.9203 7.95325C38.0538 11.2106 31.8398 20.5561 31.5694 20.9624C30.475 22.6684 29.4109 24.3571 28.3988 25.9937C26.8793 24.6477 24.929 23.9161 22.8109 23.9161C22.5362 23.9161 22.2572 23.9291 21.9796 23.9537C18.7164 24.2487 15.7092 26.2583 13.9381 29.3248L0.674518 52.054C-0.0512648 53.2872 -0.0613864 54.7648 0.648493 56.0067C1.35837 57.2487 2.63645 57.9903 4.06777 57.9903L61.5217 57.9788L88.0171 57.9947C89.4832 57.9947 90.7988 57.2385 91.5362 55.9735C92.275 54.7084 92.2836 53.1903 91.5622 51.9152H91.5651ZM88.02 56.2323L61.5506 56.2164H61.5073C55.6359 55.9099 47.3776 54.3889 41.3791 48.8646C40.7299 48.266 40.1169 47.6284 39.5588 46.9691C37.4668 44.4969 36.7497 42.4453 36.7439 42.4279L36.7309 42.3904L30.4099 28.5976L30.3969 28.5716C30.1858 28.1552 29.9328 27.7504 29.6321 27.347C30.7193 25.5817 31.8673 23.7571 33.0441 21.9224L33.0557 21.9051C33.7222 20.9017 39.621 12.0145 41.4485 8.8265C43.9656 4.43421 48.2769 1.79277 52.9873 1.76096H53.0697C57.8249 1.76096 62.2475 4.44 64.9005 8.92916C71.2345 19.6467 89.8461 52.4559 90.0311 52.7826C90.4403 53.507 90.4345 54.3672 90.0152 55.0858C89.5959 55.8043 88.8499 56.2323 88.0186 56.2323H88.02ZM22.8095 25.6771C24.8133 25.6771 26.6104 26.4896 27.8711 27.9658L27.9029 28.0048L27.9304 28.0424L27.9492 28.0597C28.3092 28.4935 28.5926 28.9157 28.8138 29.3479L35.0856 43.0337C35.2186 43.4024 36.0441 45.5378 38.1911 48.0824C38.7998 48.8038 39.4663 49.4993 40.1704 50.1484C43.0432 52.7985 46.649 54.8197 50.8866 56.1542C50.9545 56.1759 51.0239 56.1976 51.0918 56.2178L4.06777 56.2265C3.27693 56.2265 2.57138 55.8173 2.17813 55.1306C1.78632 54.4438 1.79211 53.627 2.19403 52.9431L15.4605 30.2067C16.9468 27.6318 19.4422 25.9503 22.1357 25.706C22.3598 25.6858 22.5854 25.6757 22.8066 25.6757L22.8095 25.6771Z" fill="#EDEBDF"/>
<path d="M59.3907 88.416H15.5098V89.6001H59.3907V88.416Z" fill="#EDEBDF"/>
<path d="M67.2873 86.6958C67.0358 87.8885 66.2536 88.5738 65.1403 88.5738C63.9519 88.5738 62.749 87.5791 62.749 85.6794C62.749 84.0297 63.7524 82.7864 65.084 82.7864C66.1958 82.7864 66.9794 83.4789 67.2338 84.6847L67.3061 85.0288H68.8444L68.7403 84.5097C68.3485 82.5666 66.9403 81.3594 65.0637 81.3594C62.8936 81.3594 61.1934 83.2577 61.1934 85.6794C61.1934 88.1011 62.8661 89.9994 65.0854 89.9994C66.9996 89.9994 68.4208 88.7994 68.7953 86.8678L68.895 86.3517H67.3611L67.2888 86.6958H67.2873Z" fill="#EDEBDF"/>
<path d="M72.2741 81.4707L69.1367 89.8909H70.743L71.6292 87.4938H74.8345L75.7223 89.8909H77.3256L74.1897 81.4707H72.2741ZM72.1598 86.0668L73.2326 83.1811L74.3054 86.0668H72.1598Z" fill="#EDEBDF"/>
<path d="M78.2988 89.8909H79.8111V86.3661H83.7408V84.9406H79.8111V82.8962H83.8073V81.4707H78.2988V89.8909Z" fill="#EDEBDF"/>
<path d="M86.8736 86.2678H90.3666V84.8423H86.8736V82.8962H90.4635V81.4707H85.3613V89.8909H90.5517V88.4654H86.8736V86.2678Z" fill="#EDEBDF"/>
<path d="M90.4635 79.2715H85.3613V80.6985H90.4635V79.2715Z" fill="#EDEBDF"/>
</svg>
