<svg width="30" height="31" viewBox="0 0 30 31" fill="none" xmlns="http://www.w3.org/2000/svg">
<path d="M14.7364 7.97539C12.8156 8.08615 11.0099 8.92721 9.68923 10.3263C8.36853 11.7253 7.63281 13.5764 7.63281 15.5004C7.63281 17.4243 8.36853 19.2755 9.68923 20.6745C11.0099 22.0736 12.8156 22.9146 14.7364 23.0254C16.6572 22.9146 18.4629 22.0736 19.7836 20.6745C21.1043 19.2755 21.84 17.4243 21.84 15.5004C21.84 13.5764 21.1043 11.7253 19.7836 10.3263C18.4629 8.92721 16.6572 8.08615 14.7364 7.97539ZM14.7364 20.3254C12.0989 20.3254 9.9239 18.1504 9.9239 15.5004C9.9239 12.8504 12.0989 10.6754 14.7364 10.6754C17.3739 10.6754 19.5489 12.8504 19.5489 15.5004C19.5489 18.1504 17.3739 20.3254 14.7364 20.3254ZM24.2364 7.78789C24.2364 8.23876 24.0573 8.67116 23.7385 8.98997C23.4197 9.30878 22.9873 9.48789 22.5364 9.48789C22.0855 9.48789 21.6531 9.30878 21.3343 8.98997C21.0155 8.67116 20.8364 8.23876 20.8364 7.78789C20.8364 7.33702 21.0155 6.90462 21.3343 6.58581C21.6531 6.267 22.0855 6.08789 22.5364 6.08789C22.9873 6.08789 23.4197 6.267 23.7385 6.58581C24.0573 6.90462 24.2364 7.33702 24.2364 7.78789Z" fill="#EDEBDF"/>
<path d="M26.9492 3.37469C26.1356 2.57521 25.1669 1.95091 24.1027 1.54028C23.0385 1.12966 21.9015 0.941425 20.7617 0.987194H8.69922C3.58672 0.974694 0.199219 4.37469 0.199219 9.49969V21.5622C0.199219 24.0872 1.01172 26.2622 2.66172 27.8497C4.31223 29.3907 6.50466 30.2174 8.76172 30.1497H20.7367C23.2617 30.1497 25.3617 29.3247 26.8992 27.8497C27.703 27.0283 28.3304 26.0513 28.7431 24.9787C29.1558 23.9061 29.3451 22.7605 29.2992 21.6122V9.49969C29.2992 7.02469 28.4867 4.91219 26.9617 3.37469H26.9492ZM26.5867 21.6247C26.5867 23.4372 26.0617 24.9122 25.0117 25.9122C23.8348 26.958 22.2972 27.5049 20.7242 27.4372H8.74922C6.99922 27.4372 5.52422 26.9122 4.46172 25.9122C3.9193 25.3283 3.50024 24.641 3.22961 23.8915C2.95899 23.1419 2.84236 22.3454 2.88672 21.5497V9.49969C2.84634 8.71488 2.96382 7.92995 3.2322 7.19135C3.50059 6.45275 3.91443 5.7755 4.44922 5.19969C5.44922 4.19969 6.97422 3.67469 8.73672 3.67469H20.8242C22.5867 3.67469 24.0492 4.21219 25.1117 5.26219C26.1117 6.32469 26.6992 7.79969 26.6992 9.51219V21.6247H26.5742H26.5867Z" fill="#EDEBDF"/>
</svg>
