<svg width="71" height="70" viewBox="0 0 71 70" fill="none" xmlns="http://www.w3.org/2000/svg">
<path d="M35.9688 70C55.2987 70 70.9688 54.33 70.9688 35C70.9688 15.67 55.2987 0 35.9688 0C16.6388 0 0.96875 15.67 0.96875 35C0.96875 54.33 16.6388 70 35.9688 70Z" fill="#2E418E"/>
<path d="M38.6755 30.2261C39.251 29.578 39.7229 28.9247 40.314 28.3698C42.1288 26.6587 44.2755 25.798 46.7851 25.8187C48.1644 25.8291 49.5229 25.9276 50.8503 26.3113C53.8888 27.1876 55.6518 29.2824 56.497 32.2484C57.1296 34.4728 57.2436 36.7595 57.2488 39.0513C57.2592 43.8839 57.2332 48.7217 57.2488 53.5543C57.2488 54.0054 57.1244 54.1247 56.6784 54.1247C54.1896 54.1039 51.6955 54.1039 49.2066 54.1247C48.7659 54.1247 48.6725 53.995 48.6725 53.5802C48.6881 48.9809 48.6881 44.3817 48.6725 39.7772C48.6725 38.6261 48.5947 37.4698 48.2732 36.3498C47.677 34.2861 46.1992 33.2335 44.037 33.3476C41.0814 33.5032 39.5466 34.9654 39.1733 37.9676C39.0851 38.6832 39.0384 39.4039 39.0436 40.1247C39.0436 44.5995 39.0436 49.0743 39.054 53.5491C39.054 53.995 38.9451 54.1247 38.4888 54.1247C35.9792 54.1039 33.4696 54.1039 30.9599 54.1247C30.5555 54.1247 30.4414 54.021 30.4414 53.6113C30.4518 44.755 30.4518 35.8935 30.4414 27.0372C30.4414 26.5965 30.5866 26.498 31.0014 26.498C33.3814 26.5135 35.7666 26.5187 38.1466 26.498C38.5873 26.498 38.6962 26.638 38.691 27.0528C38.6651 28.1106 38.6807 29.1684 38.6807 30.2313L38.6755 30.2261Z" fill="#EDEBDF"/>
<path d="M25.0241 40.345C25.0241 44.7265 25.0189 49.108 25.0345 53.4895C25.0345 53.9769 24.9152 54.1221 24.4122 54.1169C21.9234 54.091 19.4345 54.0962 16.9404 54.1169C16.5411 54.1169 16.4219 54.0184 16.4219 53.6088C16.4322 44.7369 16.4322 35.865 16.4219 26.988C16.4219 26.6199 16.51 26.4902 16.8989 26.4902C19.4241 26.5058 21.9493 26.511 24.4745 26.4902C24.9619 26.4902 25.0241 26.6717 25.0241 27.0917C25.0137 31.5095 25.0189 35.9273 25.0189 40.345H25.0241Z" fill="#EDEBDF"/>
<path d="M25.7121 17.7019C25.7121 20.4552 23.4825 22.6952 20.7343 22.6952C18.0225 22.6952 15.7721 20.4552 15.7618 17.7433C15.7514 15.0056 18.0018 12.75 20.7447 12.75C23.4669 12.75 25.7069 14.9848 25.7121 17.6967V17.7019Z" fill="#EDEBDF"/>
</svg>
