<svg width="190" height="55" viewBox="0 0 190 55" fill="none" xmlns="http://www.w3.org/2000/svg">
<path d="M164.725 0C166.425 0 167.778 1.39298 167.778 3.17309C167.778 4.9532 166.425 6.36577 164.707 6.36577C162.989 6.36577 161.617 4.9532 161.617 3.17309C161.617 1.39298 162.988 0 164.707 0H164.725ZM164.688 0.638305C163.391 0.638305 162.385 1.78011 162.385 3.17309C162.385 4.56607 163.39 5.70788 164.724 5.70788C166.022 5.72747 167.01 4.58566 167.01 3.19268C167.01 1.7997 166.022 0.639458 164.706 0.639458H164.687L164.688 0.638305ZM164.231 4.81725H163.537V1.64416C163.811 1.60498 164.194 1.54737 164.688 1.54737C165.255 1.54737 165.511 1.64415 165.712 1.79855C165.895 1.9345 166.023 2.16609 166.023 2.47603C166.023 2.86316 165.749 3.11433 165.402 3.2307V3.26988C165.694 3.36666 165.84 3.61783 165.932 4.04414C166.023 4.52805 166.096 4.70203 166.152 4.8184H165.42C165.329 4.70203 165.274 4.43127 165.183 4.04414C165.128 3.71577 164.945 3.56022 164.561 3.56022H164.232V4.81725H164.231ZM164.25 3.03714H164.578C164.963 3.03714 165.273 2.90118 165.273 2.57281C165.273 2.28246 165.072 2.08889 164.633 2.08889C164.45 2.08889 164.323 2.10848 164.249 2.12807V3.03714H164.25Z" fill="#EDEBDF"/>
<path d="M89.2875 37.3853C87.6567 38.6043 82.4549 42.1588 75.1051 41.8626C73.0246 41.7785 67.4319 41.1955 62.2018 37.0074C58.1976 33.7997 55.821 29.4652 54.1248 24.5236C53.4912 22.6766 53.0187 20.7698 52.4721 18.8952C52.4003 18.6451 52.311 18.4055 52.1673 17.9746C51.4205 20.4921 50.727 22.8195 50.04 25.1503C48.6922 29.7106 47.3324 34.271 46.0151 38.8428C45.818 39.5295 45.5066 39.7565 44.8404 39.738C43.2803 39.6942 41.718 39.6966 40.1579 39.7415C39.533 39.7611 39.2858 39.5134 39.1095 38.9039C37.3316 32.7305 35.5266 26.5641 33.7248 20.3976C33.6562 20.1568 33.5636 19.9264 33.3274 19.7051C33.0106 21.4161 32.6905 23.1294 32.3737 24.8404C31.4472 29.8501 30.5087 34.8551 29.6095 39.8682C29.4843 40.5826 29.2241 40.8326 28.5339 40.8107C26.9977 40.7566 25.4615 40.798 23.9265 40.7923C23.6576 40.7923 23.3887 40.7669 23 40.745C23.2003 39.5376 23.3767 38.4176 23.5705 37.3046C24.7746 30.3755 25.9819 23.4509 27.1948 16.5251C27.7565 13.3117 28.3509 10.1052 28.892 6.88949C28.9878 6.31686 29.2001 6.13712 29.7227 6.14288C31.4853 6.16823 33.249 6.15901 35.0116 6.14865C35.4362 6.14865 35.6626 6.26271 35.8063 6.76506C37.9043 14.2277 40.0316 21.6811 42.1535 29.138C42.2395 29.4353 42.3385 29.7291 42.6074 30.0586C42.8078 29.4076 43.0201 28.7624 43.2084 28.1045C45.0821 21.5717 46.9459 15.0377 48.8174 8.50139C48.9752 7.94143 49.1821 7.39415 49.2833 6.82267C49.3791 6.2823 49.6481 6.14865 50.1195 6.15556C51.8581 6.17169 53.5946 6.17399 55.3311 6.14288C55.6011 6.13828 55.7839 6.18551 55.9102 6.29728C56.1465 6.50582 56.1661 6.85954 56.1737 6.95863C56.2728 8.33087 58.252 18.4908 59.6739 23.3299C60.6548 26.6666 62.2987 29.7729 64.7766 32.121C69.74 36.823 75.9934 36.6963 77.3837 36.6306C85.01 36.2734 89.686 30.9619 90.5831 29.8996C90.1509 32.3952 89.7187 34.8908 89.2864 37.3864L89.2875 37.3853Z" fill="#EDEBDF"/>
<path d="M89.8949 16.8313H87.1623C87.1623 18.3084 86.8814 19.7002 86.373 20.9722C85.612 22.8779 84.3338 24.5083 82.728 25.6558C81.12 26.8034 79.2006 27.4705 77.1092 27.4717C75.7135 27.4717 74.3984 27.1744 73.1964 26.6363C71.3957 25.831 69.8552 24.4783 68.7709 22.7788C67.6865 21.0771 67.0562 19.0458 67.0551 16.8325C67.0551 15.3554 67.336 13.9635 67.8444 12.6915C68.6054 10.7858 69.8835 9.15552 71.4894 8.00795C73.0974 6.86039 75.0167 6.19328 77.1081 6.19213C78.5038 6.19213 79.819 6.48939 81.0209 7.02745C82.8216 7.83282 84.3621 9.18548 85.4465 10.8849C86.5308 12.5867 87.1612 14.618 87.1623 16.8313H92.6275C92.6275 14.5719 92.1931 12.4035 91.4071 10.4379C90.2269 7.48717 88.2629 4.98465 85.7872 3.2149C83.3137 1.44401 80.3133 0.407052 77.1081 0.408204C74.9732 0.408204 72.9243 0.867922 71.067 1.69979C68.2788 2.94875 65.9141 5.02728 64.2419 7.64732C62.5686 10.2651 61.5888 13.4405 61.5898 16.8325C61.5898 19.0919 62.0242 21.2603 62.8103 23.2259C63.9904 26.1766 65.9544 28.6791 68.4301 30.4489C70.9037 32.2198 73.9041 33.2567 77.1092 33.2556C79.2442 33.2556 81.2931 32.7959 83.1504 31.964C85.9386 30.715 88.3032 28.6365 89.9755 26.0165C91.6488 23.3987 92.6286 20.2233 92.6275 16.8313H89.8949Z" fill="#EDEBDF"/>
<path d="M158.299 37.3853C156.668 38.6043 151.467 42.1588 144.117 41.8626C142.036 41.7785 136.444 41.1955 131.214 37.0074C127.209 33.7997 124.833 29.4652 123.136 24.5236C122.503 22.6766 122.03 20.7698 121.484 18.8952C121.412 18.6451 121.323 18.4055 121.179 17.9746C120.432 20.4921 119.739 22.8195 119.052 25.1503C117.704 29.7106 116.344 34.271 115.027 38.8428C114.83 39.5295 114.518 39.7565 113.852 39.738C112.292 39.6942 110.73 39.6966 109.17 39.7415C108.545 39.7611 108.298 39.5134 108.121 38.9039C106.343 32.7305 104.538 26.5641 102.736 20.3976C102.668 20.1568 102.575 19.9264 102.339 19.7051C102.022 21.4161 101.702 23.1294 101.385 24.8404C100.459 29.8501 99.5205 34.8551 98.6212 39.8682C98.496 40.5826 98.2358 40.8326 97.5456 40.8107C96.0094 40.7566 94.4733 40.798 92.9382 40.7923C92.6693 40.7923 92.4004 40.7669 92.0117 40.745C92.212 39.5376 92.3884 38.4176 92.5822 37.3046C93.7863 30.3755 94.9937 23.4509 96.2065 16.5251C96.7682 13.3117 97.3627 10.1052 97.9037 6.88949C97.9996 6.31686 98.2119 6.13712 98.7344 6.14288C100.497 6.16823 102.261 6.15901 104.023 6.14865C104.448 6.14865 104.674 6.26271 104.818 6.76506C106.916 14.2277 109.043 21.6811 111.165 29.138C111.251 29.4353 111.35 29.7291 111.619 30.0586C111.819 29.4076 112.032 28.7624 112.22 28.1045C114.094 21.5717 115.958 15.0377 117.829 8.50139C117.987 7.94143 118.194 7.39415 118.295 6.82267C118.391 6.2823 118.66 6.14865 119.131 6.15556C120.87 6.17169 122.606 6.17399 124.343 6.14288C124.613 6.13828 124.796 6.18551 124.922 6.29728C125.158 6.50582 125.178 6.85954 125.185 6.95863C125.284 8.33087 127.264 18.4908 128.686 23.3299C129.667 26.6666 131.31 29.7729 133.788 32.121C138.752 36.823 145.005 36.6963 146.395 36.6306C154.022 36.2734 158.698 30.9619 159.595 29.8996C159.163 32.3952 158.73 34.8908 158.298 37.3864L158.299 37.3853Z" fill="#EDEBDF"/>
<path d="M158.907 16.8313H156.174C156.174 18.3084 155.893 19.7002 155.385 20.9722C154.624 22.8779 153.346 24.5083 151.74 25.6558C150.132 26.8034 148.212 27.4705 146.121 27.4717C144.725 27.4717 143.41 27.1744 142.208 26.6363C140.407 25.831 138.867 24.4783 137.783 22.7788C136.698 21.0771 136.068 19.0458 136.067 16.8325C136.067 15.3554 136.348 13.9635 136.856 12.6915C137.617 10.7858 138.895 9.15552 140.501 8.00795C142.109 6.86039 144.028 6.19328 146.12 6.19213C147.516 6.19213 148.831 6.48939 150.033 7.02745C151.833 7.83282 153.374 9.18548 154.458 10.8849C155.543 12.5867 156.173 14.618 156.174 16.8313H161.639C161.639 14.5719 161.205 12.4035 160.419 10.4379C159.239 7.48717 157.275 4.98465 154.799 3.2149C152.325 1.44401 149.325 0.407052 146.12 0.408204C143.985 0.408204 141.936 0.867922 140.079 1.69979C137.291 2.94875 134.926 5.02728 133.254 7.64732C131.58 10.2651 130.6 13.4405 130.602 16.8325C130.602 19.0919 131.036 21.2603 131.822 23.2259C133.002 26.1766 134.966 28.6791 137.442 30.4489C139.915 32.2198 142.916 33.2567 146.121 33.2556C148.256 33.2556 150.305 32.7959 152.162 31.964C154.95 30.715 157.315 28.6365 158.987 26.0165C160.661 23.3987 161.64 20.2233 161.639 16.8313H158.907Z" fill="#EDEBDF"/>
<path d="M71.9315 54.9934C71.5472 54.9934 71.1879 54.922 70.8526 54.778C70.5172 54.6351 70.2255 54.4358 69.9773 54.18C69.7279 53.9242 69.5342 53.6258 69.3937 53.2847C69.2533 52.9437 69.1836 52.5738 69.1836 52.1775C69.1836 51.7812 69.2544 51.4125 69.3937 51.0714C69.5342 50.7304 69.7301 50.4296 69.9816 50.1716C70.2331 49.9135 70.5249 49.713 70.8569 49.569C71.189 49.4261 71.5482 49.3535 71.9326 49.3535C72.2178 49.3535 72.4943 49.395 72.76 49.4791C73.0256 49.5621 73.2738 49.6796 73.5025 49.8305C73.7311 49.9815 73.9271 50.1646 74.0904 50.3778L73.3664 51.129C73.1846 50.8836 72.9701 50.7004 72.723 50.5771C72.4769 50.455 72.2134 50.3939 71.9326 50.3939C71.7007 50.3939 71.484 50.44 71.2826 50.531C71.0801 50.6221 70.9059 50.7476 70.7579 50.9067C70.6098 51.0657 70.4944 51.2523 70.4106 51.4655C70.3267 51.6798 70.2854 51.916 70.2854 52.1775C70.2854 52.439 70.3289 52.6614 70.4149 52.878C70.5009 53.0946 70.6196 53.2824 70.7698 53.4414C70.9201 53.6004 71.0975 53.7249 71.3022 53.8124C71.5069 53.9012 71.7322 53.9449 71.9783 53.9449C72.2494 53.9449 72.503 53.885 72.7393 53.7652C72.9755 53.6454 73.1824 53.4737 73.3598 53.249L74.0544 53.9841C73.8922 54.1927 73.6984 54.3724 73.4742 54.5233C73.2499 54.6743 73.0049 54.7906 72.7393 54.8713C72.4736 54.9519 72.2047 54.9923 71.9336 54.9923L71.9315 54.9934Z" fill="#EDEBDF"/>
<path d="M80.4406 55.0007C80.0563 55.0007 79.6981 54.9292 79.3649 54.7852C79.0329 54.6424 78.7411 54.4407 78.4929 54.1826C78.2436 53.9246 78.0498 53.625 77.9093 53.2828C77.7689 52.9417 77.6992 52.5719 77.6992 52.1755C77.6992 51.7792 77.77 51.4105 77.9093 51.0695C78.0498 50.7284 78.2447 50.4277 78.4929 50.1696C78.7411 49.9115 79.0329 49.711 79.3649 49.567C79.6981 49.4242 80.0563 49.3516 80.4406 49.3516C80.8249 49.3516 81.1754 49.423 81.5086 49.567C81.8406 49.711 82.1313 49.9115 82.3806 50.1696C82.6288 50.4277 82.8226 50.7273 82.9609 51.0695C83.0992 51.4105 83.1677 51.7804 83.1677 52.1755C83.1677 52.5707 83.0992 52.9406 82.9609 53.2828C82.8226 53.6238 82.6299 53.9246 82.3806 54.1826C82.1313 54.4407 81.8406 54.6412 81.5086 54.7852C81.1754 54.9281 80.8194 55.0007 80.4406 55.0007ZM80.4406 53.9603C80.6725 53.9603 80.8869 53.9142 81.084 53.8232C81.281 53.7321 81.453 53.6066 81.6011 53.4476C81.7492 53.2885 81.8646 53.0996 81.9484 52.8807C82.0322 52.6618 82.0736 52.4267 82.0736 52.1767C82.0736 51.9267 82.0322 51.679 81.9484 51.4647C81.8646 51.2515 81.7492 51.0649 81.6011 50.9059C81.453 50.7469 81.281 50.6213 81.084 50.5302C80.8869 50.4392 80.6746 50.3931 80.4482 50.3931C80.2217 50.3931 79.9942 50.4392 79.7939 50.5302C79.5946 50.6213 79.4204 50.7469 79.2724 50.9059C79.1243 51.0649 79.0089 51.2515 78.9251 51.4647C78.8413 51.679 78.7999 51.9105 78.7999 52.1606C78.7999 52.4106 78.8413 52.6606 78.9251 52.8795C79.0089 53.0984 79.1243 53.2874 79.2724 53.4464C79.4204 53.6054 79.5936 53.731 79.7939 53.822C79.9931 53.913 80.2087 53.9591 80.4406 53.9591V53.9603Z" fill="#EDEBDF"/>
<path d="M87.2266 54.9146V49.4395H91.2166V50.4246H88.2978V51.715H90.2412V52.6609H88.2978V54.9134H87.2266V54.9146Z" fill="#EDEBDF"/>
<path d="M95.2695 54.9146V49.4395H99.2596V50.4246H96.3408V51.715H98.2841V52.6609H96.3408V54.9134H95.2695V54.9146Z" fill="#EDEBDF"/>
<path d="M103.316 54.9146V49.4395H107.292V50.4246H104.388V51.6758H106.302V52.6218H104.388V53.9283H107.322V54.9134H103.316V54.9146Z" fill="#EDEBDF"/>
<path d="M111.41 54.9146V49.4395H115.386V50.4246H112.481V51.6758H114.395V52.6218H112.481V53.9283H115.415V54.9134H111.41V54.9146Z" fill="#EDEBDF"/>
</svg>
