<svg width="81" height="81" viewBox="0 0 81 81" fill="none" xmlns="http://www.w3.org/2000/svg">
<path d="M63.3352 50.3078C63.3136 50.2702 63.2912 50.2334 63.2744 50.2054L61.5328 47.3694V43.7598C61.5328 39.7414 58.2632 36.4718 54.2448 36.4718H53.6672C53.22 36.4718 52.7744 36.5126 52.3376 36.5934V14.1062C52.3376 8.8598 48.0696 4.5918 42.8232 4.5918H26.8232L26.7984 4.5958C21.6768 4.739 17.5544 8.951 17.5544 14.1062V42.6958C17.3312 42.9654 17.1312 43.2534 16.9576 43.5574L16.9312 43.6046C16.8496 43.7502 16.7728 43.9022 16.7016 44.0558L16.6712 44.1254C16.604 44.2774 16.5432 44.4318 16.4896 44.5838C16.4784 44.615 16.468 44.647 16.4576 44.6798C16.408 44.8294 16.364 44.979 16.328 45.1246L16.324 45.1414C16.3144 45.179 16.3064 45.2174 16.2976 45.2566C16.2632 45.4054 16.2368 45.5462 16.2144 45.6894C16.2064 45.7414 16.2 45.7934 16.1936 45.847C16.18 45.9534 16.164 46.091 16.1544 46.2574C16.1512 46.3206 16.1488 46.3838 16.148 46.451C16.1456 46.5382 16.1416 46.6734 16.148 46.8286C16.1504 46.9046 16.156 46.9806 16.1624 47.063C16.1672 47.1382 16.176 47.2622 16.196 47.415C16.2072 47.499 16.2208 47.583 16.2384 47.6758L16.24 47.6838C16.2576 47.787 16.276 47.8902 16.3 47.995C16.3216 48.0902 16.348 48.1854 16.3792 48.2926C16.404 48.3846 16.4304 48.4766 16.4632 48.5726C16.5104 48.7134 16.5568 48.827 16.5848 48.895C16.6152 48.9766 16.648 49.0566 16.6856 49.1406C16.7448 49.2726 16.8112 49.4046 16.8856 49.5414L16.908 49.587L23.852 61.615C23.8904 61.6894 23.9304 61.7614 23.972 61.831L25.7104 64.8142L25.7408 64.807L28.9416 70.1926C29.076 70.4238 29.2208 70.6534 29.384 70.8926C30.6648 72.771 32.46 74.2126 34.5752 75.0622C35.9352 75.6086 37.3648 75.8854 38.8224 75.8854H48.5704C48.996 75.8854 49.432 75.8598 49.8672 75.8102C53.4496 75.399 56.6632 73.2918 58.4624 70.1742L63.336 61.7326C63.5576 61.3494 63.764 60.9342 63.9488 60.499C65.3488 57.2086 65.12 53.3998 63.336 50.3102L63.3352 50.3078Z" fill="#EDEBDF"/>
<path d="M42.8235 7.79297H27.0691C27.0691 7.79297 27.0683 7.79297 27.0675 7.79297C23.5867 7.79297 20.7547 10.6258 20.7547 14.1074V44.0986C20.7371 44.109 20.7203 44.121 20.7035 44.1314C20.2915 44.3946 19.9659 44.745 19.7371 45.1458C19.7371 45.1466 19.7363 45.1482 19.7355 45.149C19.6907 45.2274 19.6499 45.3074 19.6123 45.389C19.6099 45.3938 19.6083 45.3986 19.6059 45.4034C19.5707 45.4818 19.5387 45.561 19.5107 45.6418C19.5075 45.6514 19.5051 45.661 19.5019 45.6706C19.4763 45.7474 19.4523 45.825 19.4331 45.9026C19.4291 45.9178 19.4267 45.933 19.4235 45.949C19.4067 46.0226 19.3915 46.0962 19.3795 46.1706C19.3763 46.1922 19.3747 46.2138 19.3715 46.2354C19.3627 46.3042 19.3547 46.3738 19.3499 46.4434C19.3483 46.4714 19.3491 46.5002 19.3483 46.5282C19.3467 46.5922 19.3443 46.6562 19.3467 46.7202C19.3475 46.7546 19.3523 46.7898 19.3547 46.8242C19.3587 46.8818 19.3619 46.9402 19.3699 46.9986C19.3755 47.0394 19.3843 47.0802 19.3915 47.1218C19.4003 47.1738 19.4083 47.225 19.4195 47.277C19.4307 47.3242 19.4451 47.3706 19.4587 47.4178C19.4715 47.4626 19.4819 47.5082 19.4971 47.553C19.5155 47.6082 19.5387 47.6618 19.5603 47.7162C19.5747 47.7522 19.5867 47.789 19.6027 47.8242C19.6387 47.9042 19.6803 47.9834 19.7235 48.061C19.7283 48.0698 19.7323 48.0794 19.7379 48.0882L26.6699 60.0946C26.6859 60.1282 26.7035 60.1618 26.7227 60.1946L26.8963 60.4866L26.8979 60.4898L26.9387 60.561L27.2651 61.1258L27.2747 61.1234L31.7011 68.5706V68.5722C31.8043 68.749 31.9139 68.9202 32.0275 69.0882C32.9555 70.4498 34.2667 71.4882 35.7675 72.0906C36.7259 72.4754 37.7611 72.6834 38.8227 72.6834H48.5707C48.8843 72.6834 49.1947 72.6642 49.5019 72.629C52.0675 72.3346 54.3835 70.837 55.6907 68.5722L60.5643 60.1306C60.7307 59.8426 60.8755 59.5458 61.0035 59.2442C62.0067 56.8866 61.8619 54.1562 60.5643 51.9082C60.5587 51.8986 60.5531 51.8898 60.5475 51.8802L58.6803 48.8386L58.3331 48.273V43.7594C58.3331 41.505 56.4995 39.6714 54.2451 39.6714H53.6675C53.3155 39.6714 52.9739 39.7162 52.6475 39.8002C52.5827 39.817 52.5179 39.8354 52.4539 39.8554C52.1979 39.9354 51.9531 40.0394 51.7219 40.165C51.6643 40.1962 51.6067 40.229 51.5507 40.2634C51.2699 40.4338 51.0107 40.6378 50.7795 40.869C50.7779 40.8674 50.7771 40.8666 50.7755 40.8658C50.7235 40.8138 50.6699 40.7642 50.6155 40.7146C50.5979 40.6994 50.5803 40.6842 50.5627 40.669C50.5219 40.6338 50.4811 40.5994 50.4395 40.5658C50.4203 40.5506 50.4003 40.5346 50.3811 40.5194C50.3363 40.485 50.2907 40.4514 50.2443 40.4186C50.2283 40.4074 50.2131 40.3962 50.1979 40.385C50.1339 40.341 50.0691 40.2986 50.0027 40.2586C50.0027 40.2586 50.0019 40.2586 50.0011 40.2586C49.9355 40.2194 49.8691 40.1818 49.8011 40.1458C49.7859 40.1378 49.7699 40.1298 49.7539 40.1218C49.6987 40.0938 49.6435 40.0666 49.5875 40.041C49.5707 40.033 49.5539 40.0258 49.5379 40.0186C49.4747 39.9906 49.4099 39.9642 49.3451 39.9394C49.3371 39.9362 49.3299 39.933 49.3219 39.9306C49.2619 39.9082 49.2011 39.8874 49.1395 39.8674V14.1074C49.1395 10.6258 46.3067 7.79297 42.8251 7.79297H42.8235ZM22.9947 14.1074C22.9947 11.861 24.8227 10.033 27.0691 10.033H42.8235C45.0699 10.033 46.8979 11.861 46.8979 14.1074V39.6938C46.5459 39.7298 46.2067 39.8106 45.8867 39.9306C45.6979 40.001 45.5163 40.085 45.3427 40.181V14.5402C45.3427 12.705 43.8499 11.2122 42.0147 11.2122H27.7763C25.9411 11.2122 24.4483 12.705 24.4483 14.5402V43.1546C24.2667 43.1474 24.0851 43.1474 23.9043 43.1554C23.5995 43.169 23.2955 43.201 22.9955 43.2562V14.1074H22.9947ZM38.8547 26.309C38.8771 26.1202 38.8899 25.9242 38.8899 25.7186V25.7018C38.8899 24.901 38.7379 24.2682 38.4347 23.801C38.1307 23.3346 37.7531 22.9962 37.3003 22.7866C36.8475 22.577 36.2843 22.397 35.6107 22.2482C35.5827 22.2426 35.5555 22.237 35.5275 22.2314C35.4995 22.2258 35.4723 22.2202 35.4443 22.2146C35.4275 22.2146 35.4123 22.2122 35.3987 22.2066C35.3851 22.201 35.3699 22.1986 35.3531 22.1986C34.8451 22.0882 34.4451 21.9818 34.1523 21.8794C33.8595 21.777 33.6163 21.6162 33.4235 21.3954C33.2299 21.1746 33.1339 20.8714 33.1339 20.4842V20.4762C33.1339 19.9682 33.3067 19.5818 33.6515 19.317C33.9963 19.0522 34.4979 18.9194 35.1547 18.9194C35.5523 18.9194 35.9595 18.997 36.3763 19.1514C36.7931 19.3058 37.2059 19.5322 37.6139 19.8306L38.6075 18.1746C38.2483 17.921 37.8771 17.705 37.4939 17.529C37.1099 17.3522 36.7211 17.2202 36.3267 17.1314C36.1835 17.0994 36.0419 17.0754 35.9003 17.0546V15.657H33.9291V17.1074C33.5691 17.177 33.2419 17.2802 32.9475 17.417C32.3483 17.6954 31.8955 18.1058 31.5891 18.6466C31.2827 19.1874 31.1291 19.8554 31.1291 20.6506V20.6586C31.1291 21.5146 31.2971 22.1738 31.6339 22.6378C31.9707 23.1018 32.3739 23.4218 32.8427 23.5986C33.2579 23.7554 33.7859 23.8962 34.4267 24.0218C32.2547 24.1154 30.5163 25.9106 30.5163 28.1058V47.161H30.4307L30.0715 46.5378C29.2955 45.1946 28.1099 44.1802 26.6867 43.6218V14.5402C26.6867 13.9402 27.1747 13.4522 27.7747 13.4522H31.8179V14.125H38.1563V13.4522H42.0123C42.6123 13.4522 43.1003 13.9402 43.1003 14.5402V39.985C42.6179 39.7842 42.0899 39.673 41.5355 39.673H40.9579C40.3563 39.673 39.7851 39.805 39.2699 40.0394V28.1058C39.2699 27.4618 39.1195 26.8522 38.8531 26.309H38.8547ZM49.5787 43.761V49.609C49.5787 50.2722 50.1155 50.809 50.7787 50.809C51.4419 50.809 51.9787 50.2722 51.9787 49.609V43.761C51.9787 42.8306 52.7355 42.073 53.6667 42.073H54.2443C55.1747 42.073 55.9323 42.8306 55.9323 43.761V48.501C55.9323 48.6162 55.9491 48.7266 55.9795 48.8314C56.0011 48.993 56.0547 49.1522 56.1459 49.3002L57.2523 51.1018L58.4891 53.1162L58.4931 53.1226C58.5227 53.1738 58.5483 53.2266 58.5755 53.2786C58.6075 53.3386 58.6411 53.397 58.6707 53.4578C58.6971 53.5122 58.7203 53.5682 58.7451 53.6234C58.7731 53.685 58.8027 53.7458 58.8275 53.8082C58.8507 53.8642 58.8691 53.921 58.8907 53.977C58.9139 54.0402 58.9395 54.1026 58.9611 54.1658C58.9795 54.2218 58.9947 54.2786 59.0123 54.3354C59.0315 54.4002 59.0531 54.465 59.0699 54.5298C59.0843 54.5858 59.0955 54.6426 59.1091 54.6994C59.1243 54.7658 59.1419 54.8322 59.1547 54.8994C59.1659 54.9554 59.1731 55.0122 59.1819 55.0682C59.1931 55.1362 59.2059 55.2042 59.2147 55.2722C59.2219 55.3266 59.2251 55.381 59.2307 55.4354C59.2379 55.5058 59.2467 55.577 59.2507 55.6474C59.2539 55.7002 59.2539 55.7538 59.2555 55.8066C59.2579 55.8794 59.2619 55.9514 59.2619 56.0242C59.2619 56.0754 59.2587 56.1274 59.2571 56.1786C59.2547 56.253 59.2547 56.3274 59.2499 56.401C59.2467 56.4498 59.2403 56.4986 59.2355 56.5466C59.2283 56.6234 59.2227 56.7002 59.2131 56.7762C59.2067 56.8242 59.1971 56.8722 59.1899 56.9202C59.1779 56.9962 59.1675 57.073 59.1523 57.149C59.1427 57.1986 59.1291 57.2482 59.1179 57.2986C59.1011 57.3722 59.0867 57.4458 59.0675 57.5186C59.0539 57.5698 59.0363 57.621 59.0211 57.6722C59.0003 57.7426 58.9811 57.813 58.9579 57.8826C58.9379 57.9434 58.9131 58.0026 58.8907 58.0626C58.8683 58.1218 58.8483 58.1818 58.8243 58.2402C58.7875 58.3306 58.7451 58.4194 58.7035 58.5082C58.6907 58.5354 58.6803 58.5626 58.6667 58.5898C58.6099 58.705 58.5491 58.8194 58.4843 58.9314L57.2931 60.9954L54.1851 66.3786L53.6107 67.3738C52.7035 68.945 51.1107 69.9954 49.3379 70.233C49.0843 70.2674 48.8275 70.2842 48.5683 70.2842H38.8203C38.5667 70.2842 38.3147 70.2674 38.0667 70.2346C38.0227 70.229 37.9795 70.2202 37.9363 70.2138C37.8635 70.2026 37.7907 70.1914 37.7187 70.177C37.6643 70.1666 37.6099 70.1538 37.5555 70.141C37.4963 70.1274 37.4371 70.1146 37.3787 70.0994C37.3195 70.0842 37.2611 70.0674 37.2027 70.0506C37.1515 70.0354 37.1003 70.0202 37.0499 70.0034C36.9875 69.9834 36.9251 69.9626 36.8635 69.9402C36.8203 69.925 36.7787 69.9082 36.7363 69.8914C36.6691 69.8658 36.6019 69.8394 36.5355 69.8114C36.5123 69.8018 36.4891 69.7898 36.4659 69.7794C36.2195 69.6698 35.9819 69.5434 35.7531 69.4018C35.7339 69.3898 35.7139 69.3778 35.6947 69.3658C34.9155 68.869 34.2499 68.1882 33.7715 67.3602L28.9651 59.273L25.0467 52.4866L24.0227 50.713L21.9003 47.0378L21.8147 46.889C21.6955 46.6826 21.7275 46.4314 21.8739 46.2586C21.9139 46.2114 21.9603 46.1698 22.0163 46.137C22.0531 46.1154 22.0907 46.0962 22.1275 46.0762C22.4059 45.9258 22.6955 45.8058 22.9939 45.7202C23.2907 45.6346 23.5955 45.581 23.9027 45.5602C24.0835 45.5482 24.2651 45.5466 24.4467 45.557C24.7443 45.5738 25.0419 45.621 25.3363 45.7002C25.8411 45.8354 26.3075 46.0554 26.7227 46.3466C26.8659 46.4474 27.0027 46.557 27.1323 46.6746C27.2923 46.8186 27.4419 46.9754 27.5795 47.1434C27.7315 47.329 27.8707 47.5274 27.9931 47.7394L28.9531 49.4026L29.6339 50.5818L29.6571 50.6226C29.8931 51.1002 30.0819 51.449 30.2347 51.7018C30.3459 51.885 30.4387 52.0194 30.5163 52.1082V53.961C30.5163 54.6242 31.0531 55.161 31.7163 55.161C32.3795 55.161 32.9163 54.6242 32.9163 53.961V28.1058C32.9163 27.1754 33.6739 26.4178 34.6043 26.4178H35.1819C36.1123 26.4178 36.8699 27.1754 36.8699 28.1058V49.361C36.8699 49.3746 36.8715 49.3874 36.8723 49.401C36.8803 49.6482 36.9627 49.877 37.0987 50.0642C37.3171 50.365 37.6699 50.561 38.0699 50.561C38.7195 50.561 39.2467 50.045 39.2683 49.401C39.2683 49.3874 39.2699 49.3746 39.2699 49.361V43.761C39.2699 42.8306 40.0267 42.073 40.9579 42.073H41.5355C42.2435 42.073 42.8499 42.5114 43.1003 43.1306C43.1795 43.3258 43.2235 43.5378 43.2235 43.761V49.361C43.2235 49.833 43.4963 50.2402 43.8923 50.4362C44.0523 50.5154 44.2323 50.561 44.4235 50.561C45.0515 50.561 45.5659 50.0786 45.6187 49.4642C45.6219 49.4298 45.6235 49.3962 45.6235 49.361V43.761C45.6235 43.181 45.9179 42.669 46.3643 42.365C46.5243 42.2562 46.7035 42.1762 46.8963 42.1266C47.0299 42.093 47.1683 42.073 47.3123 42.073H47.8899C47.9331 42.073 47.9747 42.0762 48.0163 42.0794C48.4595 42.113 48.8539 42.317 49.1363 42.6274C49.4091 42.9274 49.5779 43.325 49.5779 43.7618L49.5787 43.761Z" fill="#2E418E"/>
</svg>
