<svg width="70" height="70" viewBox="0 0 70 70" fill="none" xmlns="http://www.w3.org/2000/svg">
<g clip-path="url(#clip0_4011_2919)">
<path d="M58.7341 47.5024C58.634 47.298 58.5248 47.0936 58.4079 46.8913L56.982 44.4217C56.9715 44.4042 56.9617 44.386 56.9505 44.3685C56.8945 44.2747 56.8343 44.183 56.7685 44.092V40.9357C56.7685 37.2803 53.7949 34.3067 50.1395 34.3067H49.6138C49.1917 34.3067 48.7703 34.3466 48.358 34.4264V8.4998C48.358 3.7279 44.4758 -0.154297 39.7039 -0.154297H25.3742C20.6023 -0.154297 16.7201 3.7279 16.7201 8.4998V37.9677C16.7201 37.9775 16.7201 37.9866 16.7201 37.9964V40.025C16.536 40.2532 16.3701 40.4961 16.2245 40.7509C16.2217 40.7551 16.2189 40.76 16.2168 40.7649C16.1335 40.9119 16.0565 41.0631 15.9879 41.2129C15.9802 41.2304 15.9725 41.2472 15.9655 41.264C15.9011 41.4103 15.8451 41.5503 15.7982 41.6861C15.7884 41.7148 15.7786 41.7442 15.7688 41.7736C15.7219 41.915 15.6834 42.0487 15.6512 42.1768C15.6442 42.2048 15.6379 42.2335 15.6316 42.2622C15.6288 42.2734 15.6267 42.2839 15.6239 42.2951C15.5924 42.4344 15.5686 42.5583 15.5497 42.6801C15.542 42.7312 15.535 42.7816 15.5294 42.8341C15.5161 42.9377 15.5021 43.0609 15.4937 43.2002C15.4902 43.2604 15.4881 43.3213 15.4874 43.3843C15.4853 43.4655 15.4818 43.5838 15.4874 43.728C15.4895 43.7966 15.4944 43.8652 15.5007 43.9394V43.9464C15.5084 44.05 15.5168 44.1529 15.5301 44.2558C15.5406 44.3335 15.5532 44.4112 15.5693 44.4973V44.5022C15.5854 44.5946 15.6022 44.6863 15.6253 44.7857C15.6456 44.8739 15.6694 44.9614 15.6967 45.0538C15.7198 45.1399 15.745 45.2253 15.7737 45.3107C15.8171 45.4395 15.8591 45.5431 15.8857 45.6082C15.9137 45.6824 15.9438 45.7552 15.9753 45.8252C16.0383 45.9645 16.109 46.1059 16.1867 46.2452C16.2014 46.2725 16.2161 46.2998 16.2315 46.325L23.0782 58.1837C23.2147 58.4196 23.3792 58.631 23.5668 58.8144L27.113 64.9569C28.1315 66.7202 29.6358 68.1356 31.4649 69.0512C31.4691 69.0533 31.4726 69.0554 31.4754 69.0568C31.4873 69.0631 31.4999 69.0687 31.5118 69.075C31.6399 69.138 31.7771 69.2024 31.9332 69.271C33.2618 69.8555 34.6674 70.1516 36.1108 70.1516H44.977C45.7386 70.1516 46.5044 70.0662 47.2534 69.8968C50.08 69.2591 52.5293 67.4587 53.9741 64.9569L58.4072 57.2786C60.1425 54.2728 60.2643 50.6174 58.7334 47.5003L58.7341 47.5024Z" fill="#EDEBDF"/>
<path d="M34.8015 64.8926C34.7448 64.8779 34.6888 64.8625 34.6328 64.8457C34.6888 64.8618 34.7448 64.8779 34.8015 64.8926Z" fill="#EDEBDF"/>
<path d="M35.1103 64.9633C35.0585 64.9535 35.0081 64.9416 34.957 64.9297C35.0081 64.9409 35.0592 64.9535 35.1103 64.9633Z" fill="#EDEBDF"/>
<path d="M34.5083 64.8084C34.4467 64.7888 34.3851 64.7685 34.3242 64.7461C34.3851 64.7678 34.4467 64.7881 34.5083 64.8084Z" fill="#EDEBDF"/>
<path d="M33.2578 64.2207C33.3446 64.2669 33.4321 64.311 33.521 64.353C33.4321 64.3103 33.3446 64.2662 33.2578 64.2207Z" fill="#EDEBDF"/>
<path d="M34.2656 64.6641C34.3041 64.6781 34.3426 64.6921 34.3818 64.7054C34.3433 64.6921 34.3041 64.6781 34.2656 64.6641Z" fill="#EDEBDF"/>
<path d="M34.5664 64.7695C34.5937 64.7786 34.6217 64.787 34.6497 64.7961C34.6217 64.787 34.5944 64.7786 34.5664 64.7695Z" fill="#EDEBDF"/>
<path d="M44.9768 67.2436C45.5333 67.2436 46.0814 67.1799 46.6127 67.0602C46.0814 67.1799 45.5326 67.2436 44.9768 67.2436Z" fill="#EDEBDF"/>
<path d="M33.5195 64.3516C33.5671 64.3747 33.6161 64.3957 33.6644 64.4181C33.6161 64.3964 33.5678 64.3747 33.5195 64.3516Z" fill="#EDEBDF"/>
<path d="M46.3594 63.7091C46.3755 63.6958 46.3909 63.6825 46.4063 63.6699C46.3902 63.6825 46.3748 63.6965 46.3594 63.7091Z" fill="#EDEBDF"/>
<path d="M34.3828 64.7051C34.4451 64.7268 34.5067 64.7485 34.5697 64.7688C34.5074 64.7485 34.4451 64.7268 34.3828 64.7051Z" fill="#EDEBDF"/>
<path d="M33.8047 64.4824C33.8579 64.5055 33.9111 64.5272 33.9643 64.5489C33.9111 64.5272 33.8572 64.5055 33.8047 64.4824Z" fill="#EDEBDF"/>
<path d="M34.0938 64.5996C34.1505 64.622 34.2079 64.643 34.2653 64.664C34.2079 64.643 34.1512 64.6213 34.0938 64.5996Z" fill="#EDEBDF"/>
<path d="M55.8862 48.3469L54.4603 45.8773C54.4603 45.8773 54.4603 45.8766 54.4596 45.8759C54.4267 45.8192 54.3889 45.7667 54.3476 45.7184C54.3441 45.7149 54.3413 45.7107 54.3378 45.7065C54.2965 45.6589 54.2517 45.6162 54.2041 45.5777C54.2006 45.5749 54.1971 45.5714 54.1936 45.5686C54.1446 45.5294 54.0921 45.4951 54.0375 45.4657C54.0354 45.4643 54.0333 45.4636 54.0319 45.4622C53.9759 45.4321 53.9171 45.4069 53.8569 45.3866V40.9346C53.8569 38.8843 52.1888 37.2162 50.1385 37.2162H49.6128C49.421 37.2162 49.232 37.2309 49.0479 37.2589C48.9247 37.2778 48.8043 37.3023 48.6853 37.3331C48.5663 37.3639 48.4501 37.4003 48.3367 37.4416C48.2226 37.4836 48.112 37.5305 48.0035 37.583C47.9496 37.6089 47.8957 37.6362 47.8432 37.6649C47.7382 37.7223 47.6353 37.7846 47.5366 37.8511C47.4869 37.8847 47.4386 37.919 47.391 37.9547C47.3196 38.0079 47.2503 38.0653 47.1831 38.1234C47.1159 38.1815 47.0494 38.2417 46.9864 38.3047C46.9381 38.2564 46.8884 38.2102 46.8373 38.1647C46.8219 38.1507 46.8058 38.1374 46.7904 38.1241C46.7533 38.0919 46.7155 38.0604 46.677 38.0296C46.6595 38.0156 46.642 38.0016 46.6245 37.9883C46.5832 37.9568 46.5412 37.926 46.4985 37.8959C46.4845 37.8861 46.4712 37.8763 46.4572 37.8665C46.3991 37.8266 46.3396 37.7881 46.2787 37.751C46.2192 37.7146 46.1576 37.681 46.096 37.6481C46.082 37.6404 46.068 37.6334 46.054 37.6264C46.0036 37.6005 45.9532 37.576 45.9014 37.5522C45.8867 37.5452 45.8713 37.5382 45.8566 37.5319C45.7985 37.506 45.7397 37.4822 45.6802 37.4591C45.6732 37.4563 45.6669 37.4535 45.6599 37.4514C45.5899 37.4255 45.5192 37.401 45.4471 37.3786V8.49936C45.4471 5.33256 42.8704 2.75586 39.7036 2.75586H25.3739C22.2071 2.75586 19.6304 5.33256 19.6304 8.49936V37.9673C19.6304 37.9673 19.6304 37.9694 19.6304 37.9708C19.6304 39.0264 19.9188 40.0155 20.4186 40.866C20.1855 40.9647 19.9566 41.0767 19.734 41.2055C19.6983 41.2265 19.6654 41.2503 19.6304 41.2727C19.2559 41.5121 18.9598 41.8306 18.7512 42.1953C18.7512 42.1967 18.7498 42.1974 18.7491 42.1988C18.7085 42.2695 18.6714 42.3423 18.6378 42.4165C18.6357 42.4207 18.6336 42.4256 18.6322 42.4305C18.6 42.5012 18.5713 42.5733 18.5454 42.6468C18.5426 42.6559 18.5398 42.665 18.537 42.6741C18.5139 42.7434 18.4922 42.8134 18.4747 42.8841C18.4712 42.8981 18.4684 42.9128 18.4656 42.9268C18.4502 42.9933 18.4362 43.0598 18.4257 43.127C18.4229 43.1473 18.4208 43.1676 18.4187 43.1879C18.4103 43.2502 18.4033 43.3125 18.3991 43.3755C18.3977 43.4014 18.3984 43.428 18.397 43.4539C18.3949 43.5113 18.3935 43.5687 18.3956 43.6268C18.397 43.659 18.4005 43.6912 18.4026 43.7234C18.4061 43.7759 18.4096 43.8277 18.4159 43.8802C18.4208 43.918 18.4292 43.9558 18.4355 43.9943C18.4439 44.0405 18.4502 44.0874 18.4607 44.1329C18.4705 44.177 18.4845 44.2197 18.4971 44.2631C18.5083 44.303 18.5181 44.3436 18.5314 44.3835C18.5489 44.4346 18.5699 44.485 18.5909 44.5354C18.6035 44.5669 18.614 44.5984 18.628 44.6299C18.6623 44.7062 18.7015 44.7811 18.7435 44.8553C18.7463 44.8602 18.7484 44.8651 18.7512 44.87L25.5979 56.7287C25.6343 56.7196 25.6707 56.7112 25.7071 56.7021L29.6327 63.5019C30.3782 64.7927 31.4842 65.8098 32.7799 66.4552C32.7862 66.4587 32.7925 66.4615 32.7988 66.465C32.8989 66.5147 33.0011 66.5616 33.104 66.6064C34.0378 67.0173 35.0591 67.2406 36.1091 67.2406H44.9753C45.5318 67.2406 46.0799 67.1776 46.6112 67.0572C48.6244 66.6029 50.3982 65.3261 51.4517 63.5012L55.8848 55.8229C57.1329 53.6606 57.2113 51.0069 56.1186 48.783C56.0458 48.6346 55.9681 48.4883 55.8848 48.3441L55.8862 48.3469ZM21.6681 9.58086V8.49936C21.6681 6.45606 23.3306 4.79356 25.3739 4.79356H39.7036C41.7469 4.79356 43.4094 6.45606 43.4094 8.49936V37.2421C43.1056 37.2771 42.813 37.3478 42.5365 37.4514C42.3629 37.5165 42.1956 37.5935 42.036 37.6824C42.0374 37.646 42.0416 37.6103 42.0416 37.5739V8.89276C42.0416 8.83256 42.036 8.77446 42.0325 8.71496C41.9394 7.12876 40.6234 5.86526 39.0141 5.86526H26.0634C24.4541 5.86526 23.1381 7.12806 23.045 8.71426C23.0415 8.77306 23.0359 8.83186 23.0359 8.89206V37.5732C23.0359 39.242 24.3939 40.6 26.0627 40.6H28.5568V41.6724H26.5968C25.9563 41.1747 25.2171 40.8051 24.41 40.5888C23.8003 40.425 23.1794 40.3578 22.5662 40.3816C22.5578 40.3718 22.5494 40.362 22.541 40.3522C21.9964 39.7068 21.6674 38.8745 21.6674 37.9666V9.58086H21.6681ZM34.7189 23.5116C35.3601 23.079 35.9761 22.5764 36.5431 22.0101C38.4891 20.0648 39.6175 18.1251 39.8982 16.2456C40.1516 14.5467 39.6623 12.9815 38.5199 11.8391C38.2252 11.5444 37.8815 11.3106 37.5007 11.1314C36.2316 10.5315 34.5439 10.5574 32.8282 11.1314C31.34 11.6298 29.8315 12.5391 28.5589 13.811C24.9658 17.4041 24.1146 21.2884 26.3378 23.9484C26.9307 24.6582 27.7973 25.0957 28.8613 25.2287C28.6667 25.6795 28.5582 26.1758 28.5582 26.6973V38.5651H26.0641C25.5181 38.5651 25.0743 38.1213 25.0743 37.5753V8.89276C25.0743 8.63306 25.1758 8.39786 25.3396 8.22076C25.5202 8.02616 25.7778 7.90296 26.0641 7.90296H39.0148C39.3011 7.90296 39.5587 8.02616 39.7393 8.22076C39.9031 8.39716 40.0046 8.63306 40.0046 8.89276V37.5004C39.5657 37.3177 39.0855 37.2169 38.5815 37.2169H38.0558C37.5084 37.2169 36.989 37.3366 36.5207 37.5501V26.6959C36.5207 25.3463 35.7983 24.1626 34.7196 23.5109L34.7189 23.5116ZM26.8999 22.7472C27.9233 21.0616 29.2127 19.2157 31.025 17.9858C31.3477 17.7667 31.6802 17.5595 32.0022 17.3586C32.7547 16.8889 33.4659 16.4458 34.0588 15.8676C35.1634 14.7896 36.0034 13.5345 36.6285 12.0386C36.6453 11.9973 36.6642 11.9581 36.681 11.9168L37.7597 12.355C37.7233 12.4439 37.6834 12.53 37.6456 12.6175C36.9708 14.1855 36.0412 15.5596 34.8722 16.7006C34.189 17.367 33.3903 17.8654 32.6182 18.347C32.306 18.5416 31.9826 18.7432 31.6788 18.949C29.9757 20.1047 28.7458 21.9303 27.7665 23.5634L27.3115 23.2911L26.7676 22.9649C26.811 22.8928 26.8551 22.82 26.8992 22.7472H26.8999ZM53.9962 54.7337L52.9126 56.6111L50.086 61.5076L49.5638 62.4127C48.9156 63.5355 47.8824 64.3657 46.6868 64.7752C46.593 64.8074 46.4978 64.8361 46.4026 64.8627C45.9441 64.9915 45.4653 65.0601 44.9781 65.0601H36.1119C35.8809 65.0601 35.6527 65.0447 35.4266 65.0146C35.386 65.009 35.3454 65.0013 35.3048 64.995C35.2397 64.9852 35.1753 64.9747 35.1109 64.9621C35.0591 64.9523 35.0087 64.9404 34.9576 64.9285C34.9065 64.9166 34.8547 64.9054 34.8043 64.8921C34.7476 64.8774 34.6916 64.862 34.6356 64.8452C34.5929 64.8326 34.5509 64.82 34.5089 64.8067C34.4473 64.7871 34.3857 64.7668 34.3248 64.7444C34.294 64.7332 34.2639 64.7213 34.2338 64.7101C33.8936 64.5806 33.5674 64.4168 33.2615 64.2208C33.2608 64.2208 33.2594 64.2194 33.2587 64.2194C32.5559 63.7693 31.956 63.1561 31.5269 62.412L27.0938 54.7337C27.0091 54.5874 26.8957 54.4691 26.7648 54.3795L20.6447 43.7794C20.5068 43.5407 20.5887 43.2334 20.8281 43.0955C20.8617 43.0759 20.896 43.0584 20.9296 43.0402C21.2831 42.8491 21.6569 42.7147 22.0405 42.6377C22.2064 42.6048 22.3744 42.5817 22.5438 42.5705C22.9771 42.5411 23.4167 42.5824 23.8479 42.6979C24.4653 42.8631 25.0204 43.1683 25.4817 43.5841C25.5272 43.6254 25.5713 43.6674 25.6147 43.7101C25.8646 43.9579 26.0837 44.2393 26.2643 44.5522L27.7777 47.1744C28.1487 47.9234 28.3923 48.3329 28.5596 48.5254V50.211C28.5596 50.8137 29.0482 51.3023 29.6509 51.3023C30.2536 51.3023 30.7422 50.8137 30.7422 50.211V26.6959C30.7422 25.8496 31.431 25.1601 32.278 25.1601H32.803C33.6493 25.1601 34.3388 25.8489 34.3388 26.6959V46.0292C34.3388 46.2686 34.4165 46.4884 34.5467 46.6683C34.7448 46.942 35.0661 47.1205 35.4301 47.1205C36.0328 47.1205 36.5214 46.6319 36.5214 46.0292V40.9353C36.5214 40.8205 36.5354 40.7085 36.5592 40.6007C36.7125 39.9147 37.325 39.3995 38.0565 39.3995H38.5822C39.2493 39.3995 39.8163 39.8279 40.0277 40.4229C40.0844 40.5832 40.1173 40.7554 40.1173 40.9353V46.0292C40.1173 46.6319 40.6059 47.1205 41.2086 47.1205C41.8113 47.1205 42.2999 46.6319 42.2999 46.0292V40.9353C42.2999 40.8065 42.3174 40.6812 42.3475 40.5615C42.4406 40.1919 42.6667 39.8741 42.9733 39.6655C42.9845 39.6578 42.9964 39.6515 43.0076 39.6438C43.247 39.4898 43.5305 39.3995 43.835 39.3995H44.3607C44.6687 39.3995 44.9557 39.4919 45.1965 39.6487C45.6172 39.9231 45.8965 40.397 45.8965 40.9353V46.2546C45.8965 46.8573 46.3851 47.3459 46.9878 47.3459C47.5905 47.3459 48.0791 46.8573 48.0791 46.2546V40.9353C48.0791 40.089 48.7679 39.3995 49.6142 39.3995H50.1399C50.9862 39.3995 51.6757 40.0883 51.6757 40.9353V46.4226C51.6757 47.0253 52.1643 47.5139 52.767 47.5139C52.8048 47.5139 52.8426 47.5118 52.879 47.5083C52.879 47.5083 52.8811 47.5083 52.8825 47.5083L53.9969 49.4382C54.0312 49.4977 54.062 49.5593 54.0935 49.6195C54.9356 51.2197 54.9048 53.1601 53.9969 54.733L53.9962 54.7337Z" fill="#2E418E"/>
</g>
<defs>
<clipPath id="clip0_4011_2919">
<rect width="70" height="70" fill="white"/>
</clipPath>
</defs>
</svg>
