<svg width="80" height="81" viewBox="0 0 80 81" fill="none" xmlns="http://www.w3.org/2000/svg">
<path d="M63.027 39.2822C62.8286 39.055 62.6182 38.8398 62.399 38.6374V34.895C62.4078 34.6718 62.4158 34.267 62.399 33.7262V31.659H62.2326C62.1774 31.2278 62.1062 30.7694 62.0142 30.2918C61.967 30.0478 61.9118 29.803 61.8494 29.5598C62.7926 28.1558 63.6934 26.1582 63.6934 23.6526V15.8758C63.6934 13.1558 62.1614 10.7574 59.695 9.61577C57.223 8.47097 54.395 8.85497 52.315 10.6198C49.6982 12.8398 47.499 15.811 45.7614 19.4718H42.1918C40.4542 15.8118 38.2558 12.8398 35.6382 10.6198C33.5582 8.85577 30.731 8.47177 28.259 9.61577C25.7926 10.7582 24.2606 13.1566 24.2606 15.8766V23.6534C24.2606 26.159 25.1614 28.1566 26.1054 29.5606C26.043 29.8046 25.9878 30.0486 25.9406 30.2926C25.8486 30.7702 25.7774 31.2286 25.7222 31.659H25.5366V39.0078C25.451 39.0974 25.3662 39.1878 25.2838 39.2822C24.5174 40.159 23.9502 41.1822 23.6078 42.2758C22.4446 42.4262 21.1942 42.7054 20.011 43.2198C16.7222 44.6502 14.9102 47.451 14.9102 51.1054C14.9102 57.715 20.3534 63.0926 27.0438 63.0926H27.5158C28.1246 63.891 28.8126 64.6198 29.5694 65.271C29.4262 65.7118 29.3478 66.1806 29.3478 66.6686C29.3478 69.3846 31.7246 71.5118 34.7598 71.5118H53.7726C56.807 71.5118 59.1846 69.3846 59.1846 66.6686C59.1846 66.1262 59.0886 65.6078 58.9126 65.1246C61.463 62.867 63.1518 59.7606 63.6166 56.295L65.0142 45.879C65.3342 43.4958 64.6094 41.0902 63.0262 39.2806L63.027 39.2822Z" fill="#EDEBDF"/>
<path d="M58.9749 40.1951L58.9621 40.1631L59.0853 39.4871V34.8575H59.0837C59.0925 34.6943 59.1677 33.0199 58.7581 30.8975C58.6269 30.2167 58.4189 29.5591 58.1501 28.9287C58.9845 28.0599 60.3797 26.2255 60.3797 23.6511V15.8743C60.3797 14.4159 59.5589 13.1295 58.2365 12.5175C56.9093 11.9023 55.3893 12.1095 54.2717 13.0583C51.5901 15.3327 49.3949 18.5639 47.7389 22.6695H39.9877C38.3317 18.5639 36.1365 15.3327 33.4549 13.0583C32.3373 12.1103 30.8181 11.9031 29.4901 12.5175C28.1685 13.1295 27.3469 14.4159 27.3469 15.8743V23.6511C27.3469 26.2255 28.7429 28.0599 29.5765 28.9287C29.3077 29.5591 29.0997 30.2167 28.9685 30.8975C28.5589 33.0199 28.6341 34.6943 28.6429 34.8575H28.6221V39.4871L28.5317 40.0775C28.5237 40.5199 28.1653 40.3711 28.1501 40.8135H28.1685C27.9581 40.9879 27.7605 41.1791 27.5781 41.3879C26.8549 42.2143 26.4237 43.2423 26.3285 44.3167H25.9541C21.8141 44.3167 18.4453 47.6847 18.4453 51.8255C18.4453 55.9663 21.8133 59.3343 25.9541 59.3343H28.7501C28.7709 59.3343 28.7917 59.3319 28.8117 59.3311C30.1533 62.0319 32.5509 64.0975 35.4245 65.0247H34.6461C33.4261 65.0247 32.4341 65.7615 32.4341 66.6679C32.4341 67.5743 33.4261 68.3111 34.6461 68.3111H53.6589C54.8789 68.3111 55.8709 67.5735 55.8709 66.6679C55.8709 65.7623 54.8789 65.0247 53.6589 65.0247H52.6573C56.6645 63.7319 59.7469 60.2239 60.3309 55.8695L61.7285 45.4535C61.9253 43.9847 61.4789 42.5023 60.5037 41.3871C60.0693 40.8903 59.5477 40.4887 58.9733 40.1951H58.9749ZM25.9565 56.9335C23.1397 56.9335 20.8477 54.6415 20.8477 51.8247C20.8477 49.0079 23.1397 46.7159 25.9565 46.7159H26.5253L27.7533 55.8687C27.8021 56.2295 27.8685 56.5847 27.9501 56.9327H25.9565V56.9335ZM29.3853 23.6511V15.8743C29.3853 15.2087 29.7453 14.6447 30.3477 14.3655C30.9565 14.0831 31.6261 14.1759 32.1397 14.6111C34.6973 16.7807 36.7845 19.9567 38.3437 24.0503L38.5933 24.7063H49.1365L49.3861 24.0503C50.9453 19.9567 53.0325 16.7807 55.5901 14.6111C56.1037 14.1759 56.7733 14.0839 57.3821 14.3655C57.9845 14.6447 58.3445 15.2087 58.3445 15.8743V23.6511C58.3445 25.1415 57.6661 26.3071 57.0877 27.0399C56.2269 25.8391 55.0981 24.8151 53.7557 24.0583L52.7557 25.8319C54.8597 27.0183 56.3197 29.0055 56.7589 31.2839C57.1165 33.1351 57.0565 34.7271 57.0509 34.8583H57.0277V39.4879H54.3597L54.2893 39.0943L52.2861 39.4591L52.2845 39.4879H35.4429L35.4413 39.4591C35.7501 37.7607 36.7501 36.1975 38.2565 35.0567C38.9869 34.5039 39.8157 34.0727 40.7021 33.7663C41.1253 34.6447 41.8989 35.3103 42.8453 35.5983V39.4743H44.8813V35.5983C45.8277 35.3111 46.6005 34.6447 47.0245 33.7663C47.9101 34.0735 48.7397 34.5039 49.4701 35.0567C50.9765 36.1975 51.9765 37.7607 52.2861 39.4591L54.2893 39.0943C53.8885 36.8927 52.6141 34.8823 50.6997 33.4335C48.7957 31.9919 46.3677 31.1975 43.8645 31.1975C41.3613 31.1975 38.9333 31.9911 37.0285 33.4335C35.1141 34.8831 33.8397 36.8935 33.4389 39.0943L33.3685 39.4879H30.6813V34.8583H30.6773C30.6717 34.7271 30.6117 33.1359 30.9693 31.2839C31.4093 29.0055 32.8685 27.0183 34.9725 25.8319L33.9725 24.0583C32.6301 24.8151 31.5013 25.8391 30.6405 27.0399C30.0621 26.3071 29.3837 25.1423 29.3837 23.6511H29.3853ZM59.6693 45.1767L58.2717 55.5927C57.6685 60.0895 53.7917 63.4815 49.2541 63.4815H38.8317C34.2941 63.4815 30.4173 60.0903 29.8141 55.5927L28.4165 45.1767C28.2989 44.3023 28.5653 43.4199 29.1461 42.7567C29.7269 42.0935 30.5661 41.7119 31.4477 41.7119H56.6381C57.5205 41.7119 58.3589 42.0927 58.9397 42.7567C59.5205 43.4207 59.7861 44.3031 59.6693 45.1767Z" fill="#2E418E"/>
<path d="M33.043 32.0294C33.043 32.7406 33.6198 33.3166 34.3302 33.3166C35.0406 33.3166 35.6182 32.7398 35.6182 32.0294C35.6182 31.319 35.0414 30.7422 34.3302 30.7422C33.619 30.7422 33.043 31.319 33.043 32.0294Z" fill="#2E418E"/>
<path d="M53.0341 33.3166C53.7453 33.3166 54.3213 32.7398 54.3213 32.0294C54.3213 31.319 53.7445 30.7422 53.0341 30.7422C52.3237 30.7422 51.7461 31.319 51.7461 32.0294C51.7461 32.7398 52.3229 33.3166 53.0341 33.3166Z" fill="#2E418E"/>
</svg>
