<svg width="30" height="31" viewBox="0 0 30 31" fill="none" xmlns="http://www.w3.org/2000/svg">
<path d="M2.5 3H4.67501C6.02501 3 7.0875 4.1625 6.975 5.5L5.9375 17.95C5.7625 19.9875 7.37499 21.7375 9.42499 21.7375H22.7375C24.5375 21.7375 26.1125 20.2625 26.25 18.475L26.925 9.10001C27.075 7.02501 25.5 5.33749 23.4125 5.33749H7.27501" stroke="#EDEBDF" stroke-width="2" stroke-miterlimit="10" stroke-linecap="round" stroke-linejoin="round"/>
<path d="M20.3125 28C21.1754 28 21.875 27.3004 21.875 26.4375C21.875 25.5746 21.1754 24.875 20.3125 24.875C19.4496 24.875 18.75 25.5746 18.75 26.4375C18.75 27.3004 19.4496 28 20.3125 28Z" stroke="#EDEBDF" stroke-width="2" stroke-miterlimit="10" stroke-linecap="round" stroke-linejoin="round"/>
<path d="M10.3125 28C11.1754 28 11.875 27.3004 11.875 26.4375C11.875 25.5746 11.1754 24.875 10.3125 24.875C9.44956 24.875 8.75 25.5746 8.75 26.4375C8.75 27.3004 9.44956 28 10.3125 28Z" stroke="#EDEBDF" stroke-width="2" stroke-miterlimit="10" stroke-linecap="round" stroke-linejoin="round"/>
<path d="M11.25 10.5H26.25" stroke="#EDEBDF" stroke-width="2" stroke-miterlimit="10" stroke-linecap="round" stroke-linejoin="round"/>
</svg>
