<svg width="36" height="35" viewBox="0 0 36 35" fill="none" xmlns="http://www.w3.org/2000/svg">
<path d="M27.4363 24.5431L28.0051 29.1514C28.1509 30.3618 26.853 31.2076 25.8176 30.5806L19.7072 26.9493C19.0363 26.9493 18.3801 26.9056 17.7384 26.8181C18.8176 25.5494 19.4592 23.9452 19.4592 22.2097C19.4592 18.0681 15.8717 14.714 11.4384 14.714C9.74675 14.714 8.18634 15.1952 6.88842 16.041C6.84467 15.6764 6.83008 15.3118 6.83008 14.9327C6.83008 8.29725 12.5905 2.91602 19.7072 2.91602C26.8238 2.91602 32.5842 8.29725 32.5842 14.9327C32.5842 18.8702 30.5572 22.3556 27.4363 24.5431Z" stroke="#EDEBDF" stroke-width="2.5" stroke-linecap="round" stroke-linejoin="round"/>
<path d="M19.4577 22.2106C19.4577 23.946 18.816 25.5502 17.7369 26.819C16.2931 28.569 14.0035 29.6919 11.4368 29.6919L7.6306 31.9523C6.98893 32.346 6.17226 31.8065 6.25976 31.0627L6.62434 28.1898C4.67018 26.8336 3.41602 24.6606 3.41602 22.2106C3.41602 19.6439 4.78686 17.3836 6.88686 16.0419C8.18477 15.1961 9.74518 14.7148 11.4368 14.7148C15.8702 14.7148 19.4577 18.0689 19.4577 22.2106Z" stroke="#EDEBDF" stroke-width="2.5" stroke-linecap="round" stroke-linejoin="round"/>
</svg>
