<svg width="26" height="31" viewBox="0 0 26 31" fill="none" xmlns="http://www.w3.org/2000/svg">
<g opacity="0.8" clip-path="url(#clip0_4735_9049)">
<path d="M25.103 12.837C22.5563 12.837 19.4814 11.5536 18.0844 9.42192V21.0488C18.0848 22.7488 17.5809 24.4107 16.6366 25.8243C15.6923 27.2379 14.35 28.3397 12.7794 28.9904C11.2088 29.6411 9.48053 29.8115 7.81311 29.4799C6.1457 29.1483 4.61407 28.3298 3.41194 27.1277C2.20981 25.9256 1.39119 24.3941 1.0596 22.7268C0.728018 21.0595 0.898369 19.3313 1.54911 17.7608C2.19985 16.1903 3.30175 14.848 4.71544 13.9038C6.12914 12.9595 7.79111 12.4557 9.49118 12.4561C9.66897 12.4561 9.84676 12.473 10.0212 12.4831V16.7177C9.84507 16.6957 9.67236 16.6652 9.49118 16.6652C8.32807 16.6652 7.21259 17.1273 6.39015 17.9497C5.5677 18.7721 5.10566 19.8875 5.10566 21.0505C5.10566 22.2136 5.5677 23.329 6.39015 24.1514C7.21259 24.9738 8.32807 25.4358 9.49118 25.4358C11.9125 25.4358 14.0528 23.5276 14.0528 21.1047L14.0951 1.35742H18.1471C18.3319 3.11813 19.1298 4.75783 20.4014 5.98971C21.673 7.22159 23.3372 7.96722 25.103 8.09618V12.837Z" fill="#EDEBDF" stroke="#EDEBDF" stroke-width="1.35452" stroke-miterlimit="10"/>
</g>
<defs>
<clipPath id="clip0_4735_9049">
<rect width="25.9" height="30" fill="white" transform="translate(0.0507812 0.5)"/>
</clipPath>
</defs>
</svg>
