<svg width="70" height="70" viewBox="0 0 70 70" fill="none" xmlns="http://www.w3.org/2000/svg">
<path d="M56.9169 27.1869C56.6782 25.7981 55.8571 24.6221 54.7007 23.9193L54.5159 22.8126C54.3178 21.6555 53.6892 20.6552 52.7918 19.9825L52.4404 17.396C52.1471 15.2372 50.6239 13.4956 48.6443 12.846C48.0738 11.1737 46.3777 10.0768 44.557 10.3211C43.682 10.4401 42.9176 10.851 42.3485 11.4425C41.5407 10.6088 40.3598 10.1552 39.1215 10.3211C38.2675 10.4373 37.5185 10.8321 36.9536 11.4005C36.8472 11.2983 36.7345 11.201 36.6155 11.1107C35.8259 10.5115 34.8501 10.2553 33.8729 10.3904C32.8908 10.5241 32.0193 11.0316 31.4194 11.8205C30.8195 12.6094 30.5626 13.5845 30.6963 14.5666L30.7957 15.2988C30.8601 15.7741 30.9854 16.2291 31.1625 16.6568C30.8888 16.8976 30.6403 17.1755 30.4247 17.4863L29.7982 18.3984C28.4528 18.5468 27.211 19.265 26.4081 20.4235L25.3742 21.9145C24.74 22.8287 24.4551 23.9172 24.5384 24.9966H22.7457C20.6611 24.9966 18.9657 26.692 18.9657 28.7766C18.9657 29.17 19.0266 29.5501 19.1386 29.9071H16.487C14.4024 29.9071 12.707 31.6025 12.707 33.6871C12.707 34.8337 13.2208 35.8613 14.0286 36.555C13.7129 37.1073 13.5309 37.7457 13.5309 38.4261C13.5309 40.3735 15.0114 41.9814 16.9063 42.1844C16.8601 42.4196 16.8356 42.6625 16.8356 42.911C16.8356 44.9956 18.531 46.691 20.6156 46.691H23.6837L23.1636 51.9942C22.9774 53.8947 24.243 55.6398 26.1078 56.0535L42.2113 59.6235C42.4794 59.683 42.7545 59.7131 43.0282 59.7131C44.6291 59.7131 46.0613 58.6981 46.5933 57.1882L48.5484 51.6372C49.3254 51.1955 49.9407 50.4822 50.2494 49.6002L54.0826 38.6522C54.3808 37.7996 54.3619 36.8721 54.0406 36.0405L54.7602 33.9972C55.141 33.7949 55.4952 33.5401 55.813 33.2377C56.9659 32.1394 57.4937 30.5469 57.2249 28.9775L56.9176 27.1876L56.9169 27.1869Z" fill="#EDEBDF"/>
<path d="M22.8441 39.4017C23.0695 39.3793 23.2725 39.2799 23.4265 39.1308C23.4566 39.1014 23.4853 39.0706 23.5112 39.0377C23.6456 38.8697 23.7261 38.6576 23.7261 38.4266C23.7261 38.2943 23.6995 38.169 23.6526 38.0542C23.6463 38.0381 23.6386 38.0227 23.6309 38.0073C23.6267 37.9975 23.6218 37.9884 23.6176 37.9793C23.612 37.9681 23.6057 37.9569 23.5994 37.9457C23.4629 37.7049 23.2284 37.5271 22.9491 37.4683C22.884 37.4543 22.8161 37.4473 22.7468 37.4473H17.312C17.2427 37.4473 17.1748 37.455 17.1097 37.4683C16.6659 37.5614 16.332 37.9555 16.332 38.4273C16.332 38.7318 16.4706 39.0041 16.689 39.1833C16.8143 39.2869 16.9662 39.3597 17.1328 39.3905C17.1349 39.3905 17.1363 39.3919 17.1384 39.3919C17.1944 39.4017 17.2525 39.4073 17.312 39.4073H22.7468C22.7797 39.4073 22.8126 39.4059 22.8448 39.4024L22.8441 39.4017Z" fill="#2E418E"/>
<path d="M16.4878 34.6659H27.1173C27.3343 34.6659 27.5345 34.5945 27.6969 34.4748L27.405 37.454L27.2223 39.316L26.915 42.4464C26.7498 42.1391 26.425 41.9298 26.0512 41.9298H20.6164C20.3518 41.9298 20.1124 42.0348 19.936 42.2056C19.8681 42.2707 19.81 42.3463 19.7631 42.4289C19.7519 42.4492 19.7414 42.4695 19.7316 42.4905C19.7239 42.5059 19.7169 42.5213 19.7099 42.5374C19.6623 42.6522 19.6364 42.7782 19.6364 42.9098C19.6364 43.4509 20.0753 43.8898 20.6164 43.8898H26.0512C26.2878 43.8898 26.5055 43.8058 26.6749 43.6658C26.6917 43.6518 26.7078 43.6364 26.7239 43.6217C26.7309 43.6154 26.7379 43.6091 26.7449 43.6028C26.7673 43.5804 26.789 43.5566 26.8093 43.5321L26.5027 46.6618L25.9532 52.266C25.9441 52.3584 25.9483 52.4494 25.9644 52.5369C26.0337 52.9163 26.3235 53.2313 26.7169 53.3181L42.819 56.8881C42.8904 56.9042 42.9611 56.9112 43.0318 56.9112C43.4392 56.9112 43.8151 56.6557 43.9558 56.2567L46.4086 49.2917L50.9117 36.5048L52.5854 31.7511C52.6561 31.749 52.7261 31.742 52.7954 31.7322C52.8178 31.7294 52.8402 31.7245 52.8626 31.721C52.913 31.7126 52.9627 31.7014 53.0124 31.6888C53.0341 31.6832 53.0565 31.6776 53.0782 31.6713C53.1433 31.6524 53.2077 31.6307 53.2707 31.6048C53.2742 31.6034 53.277 31.6027 53.2805 31.6013C53.3463 31.574 53.41 31.5418 53.473 31.5075C53.4919 31.497 53.5108 31.4858 53.529 31.4746C53.5745 31.4473 53.6193 31.4186 53.6634 31.3871C53.6809 31.3745 53.6991 31.3619 53.7166 31.3493C53.7747 31.3052 53.8307 31.259 53.8846 31.2079C53.9231 31.1715 53.9595 31.1337 53.9945 31.0945C54.2381 30.8215 54.3977 30.4897 54.4621 30.1369C54.5034 29.9122 54.5076 29.6798 54.4677 29.4474L54.3207 28.5899L54.1611 27.6589C54.0253 26.8665 53.4303 26.2421 52.6456 26.0685L52.2088 25.9719L51.9743 24.5698L51.7594 23.2846C51.7405 23.1733 51.7097 23.0662 51.6705 22.964C51.59 22.7547 51.471 22.565 51.3198 22.4061C51.3184 22.4047 51.317 22.4033 51.3156 22.4019C51.1511 22.2304 50.9502 22.0946 50.7241 22.005C50.6408 21.9721 50.554 21.9441 50.4637 21.9245L50.2019 21.8664C50.2047 21.8328 50.2054 21.7992 50.2047 21.7649C50.2047 21.7635 50.2047 21.7621 50.2047 21.7614C50.204 21.7264 50.2012 21.6914 50.1963 21.6557L49.6685 17.7728C49.4851 16.4267 48.2839 15.3718 46.9329 15.3718C46.5682 15.3718 46.1895 15.0358 46.1398 14.6669L46.0404 13.934C46.0334 13.8801 46.0201 13.8283 46.0054 13.7779C45.8675 13.3278 45.4216 13.0303 44.9407 13.0947C44.94 13.0947 44.9386 13.0947 44.9379 13.0947C44.9232 13.0968 44.9085 13.1003 44.8938 13.1031C44.4801 13.1787 44.17 13.5056 44.1035 13.9032C44.0874 13.9984 44.0853 14.0971 44.0993 14.1979L44.1861 14.8349L44.1994 14.9301C44.2225 15.0981 44.261 15.2619 44.3142 15.4201C44.3254 15.4537 44.3401 15.4852 44.352 15.5181C44.3982 15.6406 44.4514 15.7596 44.5137 15.8737C44.8728 16.5219 45.4846 17.0182 46.1958 17.2254C46.4331 17.2947 46.6809 17.3318 46.9343 17.3318C47.208 17.3318 47.4894 17.5208 47.6336 17.7714C47.6819 17.8547 47.7148 17.945 47.7274 18.0374L48.1873 21.4205L46.4555 21.0369L44.5382 20.612C44.5466 20.5812 44.5543 20.5497 44.5599 20.5182V20.5168C44.5648 20.4874 44.5683 20.4573 44.5711 20.4265C44.5711 20.4237 44.5718 20.4209 44.5718 20.4174C44.5739 20.3908 44.5739 20.3642 44.5732 20.3376C44.5732 20.3306 44.5732 20.3236 44.5732 20.3166C44.5725 20.2914 44.5697 20.2655 44.5669 20.2403C44.5662 20.2319 44.5662 20.2242 44.5648 20.2158L44.233 17.7749C44.1098 16.8677 43.5225 16.0942 42.7399 15.6854C42.7245 15.677 42.7091 15.6672 42.6937 15.6595C42.6573 15.6413 42.6195 15.6266 42.5817 15.6098C42.5439 15.593 42.5075 15.5748 42.469 15.5594C42.4522 15.5531 42.4347 15.5482 42.4179 15.5419C42.2723 15.488 42.1225 15.446 41.9685 15.4173C41.8145 15.3893 41.657 15.3732 41.4974 15.3732C41.482 15.3732 41.4666 15.369 41.4512 15.3683C41.321 15.3585 41.1915 15.3095 41.0767 15.2311C40.8835 15.0988 40.7337 14.8902 40.7036 14.6683L40.6042 13.9354C40.6042 13.9354 40.6035 13.9312 40.6028 13.9291C40.5272 13.3964 40.0351 13.024 39.501 13.0961C39.1657 13.1416 38.8934 13.3516 38.7541 13.6337C38.6708 13.8031 38.6351 13.9977 38.6624 14.1993L38.7618 14.9322C38.9333 16.1943 40.0001 17.2002 41.2461 17.3213C41.3294 17.3297 41.4127 17.3332 41.4974 17.3332C41.5429 17.3332 41.5891 17.3388 41.6346 17.3486C41.6514 17.3521 41.6675 17.3598 41.6843 17.3647C41.8026 17.3997 41.916 17.462 42.0126 17.5481C42.0154 17.5509 42.0175 17.5537 42.0203 17.5565C42.0567 17.5894 42.0903 17.6258 42.1211 17.6643C42.21 17.7756 42.2723 17.9051 42.2905 18.0395L42.5817 20.1801L38.7968 19.3408C38.9445 19.1735 39.0313 18.953 39.0257 18.7178C39.025 18.6842 39.0222 18.6506 39.0173 18.6163L38.9039 17.7847C38.7254 16.4722 37.5543 15.4439 36.2376 15.4439C35.8337 15.4439 35.4305 15.0862 35.3752 14.6781L35.2758 13.9459C35.2079 13.4482 34.7501 13.0982 34.2517 13.1668C33.7848 13.2305 33.4488 13.6372 33.4649 14.0985C33.4656 14.1293 33.4684 14.1601 33.4726 14.1916L33.572 14.9238C33.7505 16.2363 34.9216 17.2646 36.2376 17.2646C36.6415 17.2646 37.0447 17.6223 37.1 18.0304L37.2134 18.862C37.2134 18.862 37.2148 18.8669 37.2148 18.8697C37.2211 18.9138 37.2323 18.9558 37.2449 18.9978L34.4855 18.386C34.3595 18.358 34.2335 18.3447 34.1082 18.3454C33.6504 18.3482 33.2129 18.5372 32.8951 18.8753C32.8377 18.9369 32.7838 19.0034 32.7341 19.0741L31.1934 21.3169L30.9505 21.263L30.7566 21.2203C30.5648 21.1776 30.3716 21.165 30.1826 21.179C30.1147 21.1839 30.0475 21.193 29.981 21.2049C29.4763 21.2952 29.0164 21.5808 28.7105 22.0218L27.6766 23.5128C27.5261 23.7305 27.4253 23.972 27.3714 24.2226C27.3434 24.3528 27.328 24.4851 27.3266 24.6181C27.3266 24.6272 27.3252 24.6356 27.3252 24.6447C27.3252 24.6552 27.3273 24.6657 27.3273 24.6762C27.3294 24.784 27.3427 24.8918 27.363 24.9989C27.3854 25.1186 27.4162 25.2383 27.461 25.3538C27.4883 25.4231 27.5198 25.4896 27.5541 25.5547C27.566 25.5778 27.58 25.5995 27.5926 25.6219C27.6157 25.6618 27.6402 25.701 27.6661 25.7395C27.6843 25.7661 27.7032 25.7927 27.7228 25.8186C27.7445 25.848 27.7683 25.876 27.7921 25.904C27.8166 25.9334 27.8411 25.9628 27.8677 25.9908C27.8782 26.002 27.8901 26.0125 27.9013 26.023C28.0224 26.1448 28.1582 26.2491 28.3073 26.3359C28.3129 26.3394 28.3192 26.3429 28.3255 26.3464C28.378 26.3758 28.4319 26.4038 28.4872 26.429L28.3626 27.6974L28.3514 27.8143C28.2961 27.8045 28.2401 27.7989 28.182 27.7989H22.7472C22.2061 27.7989 21.7672 28.2378 21.7672 28.7789C21.7672 29.0834 21.9058 29.3557 22.1242 29.5349C22.2495 29.6385 22.4014 29.7113 22.568 29.7421C22.5701 29.7421 22.5715 29.7435 22.5736 29.7435C22.6296 29.7533 22.6877 29.7589 22.7472 29.7589H28.1603L28.1316 30.0487L27.8852 32.5589L27.839 33.0286C27.6598 32.8333 27.4029 32.7101 27.1173 32.7101H16.4878C15.9467 32.7101 15.5078 33.149 15.5078 33.6901C15.5078 33.7972 15.5253 33.9001 15.5575 33.9967C15.6863 34.3873 16.0538 34.6701 16.4878 34.6701V34.6659ZM34.1803 20.1794L49.9793 23.6822L50.2908 25.5477L49.259 25.3188L39.9588 23.2573L34.1411 21.9679L33.1093 21.739L34.1803 20.1801V20.1794ZM29.1718 24.546L30.2057 23.055C30.2407 23.0046 30.3023 22.9808 30.3618 22.9934L33.0295 23.5849L49.5817 27.2543L52.2494 27.8458C52.3096 27.8591 52.3551 27.9067 52.3656 27.9676L52.6722 29.7561C52.6813 29.8086 52.6659 29.8541 52.6274 29.8905C52.5889 29.9276 52.5427 29.9402 52.4909 29.9283L52.402 29.9087C52.3124 29.8548 52.2137 29.8149 52.1094 29.7918L50.435 29.4208L31.4188 25.2047L29.7444 24.8337C29.6401 24.8106 29.5337 24.805 29.4294 24.8162L29.2628 24.7791C29.211 24.7672 29.1746 24.7364 29.155 24.6867C29.1354 24.637 29.141 24.5901 29.1718 24.546ZM28.5621 45.7315L28.8757 42.536L29.0626 40.6271L29.4525 36.6546L29.687 34.2648L29.8949 32.1424L29.9845 31.2268L30.4003 26.9862L31.2263 27.1696L31.6435 27.262L49.7791 31.2828L50.6051 31.4662L48.1761 38.3647L45.416 46.2033L42.3934 54.7867L27.9867 51.5926L28.5614 45.7315H28.5621Z" fill="#2E418E"/>
<path d="M41.644 42.5638C40.7984 41.903 39.7134 41.5299 38.5885 41.5124C37.4636 41.4949 36.3681 41.8351 35.5029 42.47C34.6328 43.1077 34.0469 44.0023 33.8516 44.9879L34.749 45.1657C34.8995 44.4048 35.3594 43.7097 36.044 43.2078C36.3744 42.9656 36.7489 42.778 37.1479 42.6464C37.3327 43.0447 37.6771 43.3548 38.1013 43.4899L38.0747 45.2231L38.9896 45.2371L39.0162 43.5039C39.4446 43.3814 39.7988 43.0825 39.9948 42.6898C40.3896 42.8333 40.7578 43.0321 41.0812 43.2848C41.7497 43.8077 42.1886 44.5168 42.3153 45.2819L43.2176 45.1321C43.0524 44.1402 42.4938 43.2288 41.644 42.5645V42.5638Z" fill="#2E418E"/>
<path d="M34.6309 39.0423L34.1941 38.2387C33.5851 38.5698 33.0699 39.022 32.6744 39.5561C32.4203 39.2229 32.1256 38.6909 32.1354 38.0245L32.1886 34.5315C32.1935 34.2326 32.3587 33.9813 32.631 33.8602C32.9061 33.7377 33.2064 33.7839 33.4339 33.9827C34.5679 34.9746 35.4835 36.4159 36.1555 38.2653L36.2633 38.5614L38.6314 38.5978L40.9995 38.6342L41.1164 38.3416C41.8451 36.5132 42.8041 35.1013 43.9682 34.1444C44.202 33.9519 44.5037 33.9155 44.7746 34.0464C45.0434 34.1759 45.2009 34.4314 45.1967 34.731L45.1435 38.224C45.133 38.8911 44.8222 39.4133 44.5576 39.7388C44.1789 39.1928 43.6777 38.7252 43.0792 38.3752L42.6179 39.1648C43.5552 39.7122 44.1971 40.6145 44.3791 41.6414C44.5324 42.508 44.4855 43.2528 44.4848 43.2598L45.3976 43.2738C45.3997 43.2416 45.4536 42.4667 45.2793 41.4818C45.2247 41.1752 45.1372 40.877 45.021 40.5921C45.4018 40.2071 46.0402 39.393 46.0577 38.238L46.1109 34.745C46.1207 34.0898 45.7609 33.5067 45.1715 33.2225C44.5793 32.9369 43.8954 33.0195 43.3865 33.4381C42.1664 34.4412 41.1577 35.8776 40.3856 37.7109L38.6447 37.6843L36.9038 37.6577C36.1884 35.802 35.2245 34.3355 34.0352 33.2953C33.5396 32.8613 32.8585 32.7584 32.2579 33.0251C31.6601 33.2911 31.2821 33.863 31.2723 34.5182L31.2191 38.0112C31.2016 39.1662 31.8148 39.9999 32.1837 40.3961C32.0584 40.6775 31.9618 40.9722 31.8981 41.2774C31.6937 42.2567 31.7238 43.0323 31.7252 43.0652L32.638 43.0792C32.638 43.0722 32.6135 42.3267 32.7934 41.465C33.0069 40.4444 33.6761 39.5624 34.6295 39.0437L34.6309 39.0423Z" fill="#2E418E"/>
<path d="M42.2032 41.896C42.1983 42.2152 42.4531 42.4784 42.773 42.4833C43.0929 42.4882 43.3554 42.2334 43.3603 41.9135C43.3652 41.5936 43.1104 41.3311 42.7905 41.3262C42.4713 41.3213 42.2081 41.5761 42.2032 41.896Z" fill="#2E418E"/>
<path d="M34.3706 42.3564C34.6898 42.3613 34.953 42.1065 34.9579 41.7866C34.9628 41.4674 34.708 41.2042 34.3881 41.1993C34.0689 41.1944 33.8058 41.4492 33.8009 41.7691C33.796 42.0883 34.0507 42.3515 34.3706 42.3564Z" fill="#2E418E"/>
</svg>
