<svg width="80" height="80" viewBox="0 0 80 80" fill="none" xmlns="http://www.w3.org/2000/svg">
<path d="M54.9228 24.7193C53.9156 24.0761 52.6268 23.5817 50.906 23.1785C50.906 22.9913 50.8932 22.8025 50.8676 22.6129L50.7388 21.6633C50.406 19.2137 48.67 17.2393 46.418 16.5161C46.1524 15.7065 45.6484 14.9961 44.9548 14.4697C44.0524 13.7841 42.9372 13.4921 41.8196 13.6457C40.8844 13.7729 40.0388 14.1977 39.3852 14.8569C39.2484 14.7193 39.102 14.5897 38.9444 14.4697C38.042 13.7841 36.926 13.4913 35.8092 13.6457C34.874 13.7729 34.0276 14.1977 33.3748 14.8569C33.2372 14.7193 33.0908 14.5889 32.9332 14.4689C32.0308 13.7841 30.9156 13.4921 29.7988 13.6457C28.6764 13.7985 27.6804 14.3785 26.9948 15.2801C26.3092 16.1817 26.0156 17.2961 26.1684 18.4185L26.282 19.2553C26.5052 20.8969 27.3604 22.3233 28.5772 23.3041C27.1108 23.6833 25.9804 24.1409 25.0756 24.7177C22.7756 26.1857 22.4316 28.1617 22.4316 29.2089C22.4316 29.6881 22.498 30.1553 22.63 30.6049L26.2852 60.8145C26.422 61.9433 26.9852 62.9569 27.874 63.6689C29.1716 64.7081 30.7332 65.4137 32.3876 65.7105C34.9004 66.1617 37.4612 66.3897 39.998 66.3897C42.5348 66.3897 45.0956 66.1609 47.6084 65.7105C49.2636 65.4137 50.8252 64.7073 52.1236 63.6673C53.0108 62.9561 53.5748 61.9433 53.7116 60.8145L57.3668 30.6049C57.4988 30.1545 57.5652 29.6873 57.5652 29.2073C57.5652 28.1601 57.222 26.1841 54.9212 24.7161L54.9228 24.7193Z" fill="#EDEBDF"/>
<path d="M24.8262 29.2115C24.8262 29.8899 25.1758 30.4707 25.8982 30.9699L27.5766 44.8435L29.463 60.4339C29.4982 60.7251 29.6462 60.9907 29.875 61.1739C30.003 61.2763 30.1358 61.3723 30.271 61.4651C31.019 61.9779 31.8726 62.3395 32.7742 62.5259C32.8342 62.5387 32.8942 62.5531 32.955 62.5643C33.0942 62.5891 33.2334 62.6107 33.3726 62.6347C35.5726 63.0059 37.7862 63.1939 39.9998 63.1939C41.6958 63.1939 43.3918 63.0835 45.0814 62.8659C45.7374 62.7811 46.3918 62.6827 47.0454 62.5651C47.9054 62.4107 48.7262 62.0955 49.4582 61.6435C49.6894 61.5003 49.9126 61.3443 50.1254 61.1747C50.3542 60.9915 50.5022 60.7259 50.5374 60.4347L54.1022 30.9707C54.8246 30.4715 55.1742 29.8907 55.1742 29.2123C55.1742 27.7651 53.583 26.7595 50.1662 26.0491C50.063 26.0275 49.9558 26.0075 49.8502 25.9867C48.2486 25.6723 46.367 25.4427 44.327 25.3083C43.8782 25.2787 43.4222 25.2539 42.9598 25.2339C41.9958 25.1915 41.0062 25.1699 40.0006 25.1699C39.4566 25.1699 38.9174 25.1771 38.3846 25.1891C37.9014 25.2003 37.4238 25.2171 36.9518 25.2379C34.9054 25.3299 32.9846 25.5147 31.303 25.7827C30.791 25.8643 30.2998 25.9531 29.835 26.0491C26.4182 26.7595 24.827 27.7651 24.827 29.2123L24.8262 29.2115ZM48.371 59.6803C47.8558 60.0155 47.2686 60.2483 46.6494 60.3595C42.2366 61.1515 37.7622 61.1515 33.3502 60.3595C32.731 60.2483 32.1438 60.0163 31.6286 59.6803L28.279 31.9939C28.5902 32.0835 28.9222 32.1699 29.2774 32.2515C29.4582 32.2931 29.643 32.3339 29.835 32.3739C32.5622 32.9411 36.1726 33.2539 40.0006 33.2539C43.8286 33.2539 47.439 32.9411 50.1662 32.3739C50.3582 32.3339 50.543 32.2931 50.7238 32.2515C51.079 32.1691 51.411 32.0835 51.7222 31.9931L48.3726 59.6795L48.371 59.6803ZM27.5262 29.0731C28.9766 28.3651 33.2118 27.4083 39.9998 27.4083C40.0982 27.4083 40.1942 27.4091 40.291 27.4099C40.5134 27.4107 40.7334 27.4131 40.9502 27.4155C47.1838 27.4995 51.0926 28.3987 52.4742 29.0731C52.571 29.1203 52.6558 29.1667 52.7278 29.2115C52.5718 29.3083 52.3558 29.4123 52.083 29.5195C51.7862 29.6363 51.423 29.7563 50.9902 29.8755C48.8886 30.4555 45.1918 31.0147 40.0006 31.0147C34.8094 31.0147 31.1118 30.4555 29.011 29.8755C28.5782 29.7563 28.2142 29.6355 27.9182 29.5195C27.6454 29.4123 27.4294 29.3083 27.2734 29.2115C27.3454 29.1667 27.4302 29.1203 27.527 29.0731H27.5262Z" fill="#2E418E"/>
<path d="M32.4997 19.42C32.4381 19.42 32.3773 19.4128 32.3173 19.3992C31.9229 19.3104 31.5693 18.9496 31.5141 18.5456L31.4005 17.7088C31.3229 17.14 30.7997 16.74 30.2301 16.8184C29.6605 16.896 29.2621 17.42 29.3397 17.9888L29.4533 18.8256C29.6573 20.3256 30.9957 21.5008 32.4997 21.5008C32.9613 21.5008 33.4221 21.9096 33.4853 22.376L33.4973 22.4648L33.6141 23.3264C33.6853 23.848 34.1309 24.2264 34.6437 24.2264C34.6901 24.2264 34.7373 24.2232 34.7853 24.2168C35.0413 24.1824 35.2621 24.0568 35.4213 23.8776C35.6165 23.6584 35.7189 23.3592 35.6757 23.0456L35.5725 22.284L35.5469 22.0952C35.3429 20.5952 34.0045 19.42 32.4997 19.42Z" fill="#2E418E"/>
<path d="M38.5114 19.42C38.4506 19.42 38.389 19.4128 38.329 19.3992C37.9346 19.3104 37.581 18.9496 37.5258 18.5456L37.4122 17.7088C37.3354 17.1392 36.8114 16.74 36.2418 16.8184C36.0186 16.8488 35.8226 16.9488 35.6698 17.092C35.4338 17.3144 35.3042 17.6432 35.3514 17.9888L35.465 18.8264C35.669 20.3264 37.0074 21.5008 38.5122 21.5008C38.5738 21.5008 38.6346 21.5088 38.6946 21.5216C39.0098 21.5928 39.2986 21.8368 39.4298 22.1384C39.4626 22.2144 39.4866 22.2936 39.4978 22.3752L39.6266 23.3256C39.697 23.8472 40.1434 24.2256 40.6562 24.2256C40.7026 24.2256 40.7498 24.2224 40.7978 24.216C41.0538 24.1816 41.2746 24.056 41.4338 23.8768C41.629 23.6576 41.7306 23.3584 41.6882 23.0456L41.5674 22.1544L41.5594 22.0952C41.3554 20.5952 40.017 19.42 38.5122 19.42H38.5114Z" fill="#2E418E"/>
<path d="M44.5223 21.5008C44.5831 21.5008 44.6447 21.5088 44.7047 21.5216C45.0959 21.6096 45.4471 21.9656 45.5063 22.3672C45.5063 22.3704 45.5079 22.3728 45.5079 22.376L45.6375 23.3264C45.7087 23.848 46.1543 24.2264 46.6671 24.2264C46.7135 24.2264 46.7607 24.2232 46.8087 24.2168C47.3783 24.1392 47.7767 23.6152 47.6991 23.0464L47.6383 22.6L47.5695 22.096C47.3655 20.596 46.0271 19.4208 44.5231 19.4208C44.0615 19.4208 43.6007 19.012 43.5375 18.5456L43.4239 17.7088C43.3463 17.14 42.8231 16.74 42.2535 16.8184C42.0303 16.8488 41.8343 16.948 41.6815 17.092C41.4455 17.3144 41.3159 17.6432 41.3631 17.9888L41.4767 18.8256C41.6807 20.3256 43.0191 21.5008 44.5239 21.5008H44.5223Z" fill="#2E418E"/>
<path d="M47.7683 38.0177C47.0915 37.6913 46.3099 37.7857 45.7283 38.2641C44.3339 39.4105 43.1811 41.0521 42.2987 43.1473L40.3091 43.1169L38.3195 43.0865C37.5019 40.9657 36.4003 39.2897 35.0411 38.1009C34.4747 37.6049 33.6963 37.4873 33.0099 37.7921C32.3267 38.0961 31.8947 38.7497 31.8835 39.4985L31.8227 43.4905C31.8027 44.8105 32.5035 45.7633 32.9251 46.2161C32.7819 46.5377 32.6715 46.8745 32.5987 47.2233C32.3651 48.3425 32.3995 49.2289 32.4011 49.2665L33.4451 49.2825C33.4451 49.2745 33.4171 48.4225 33.6227 47.4377C33.8667 46.2713 34.6315 45.2633 35.7211 44.6705L35.2219 43.7521C34.5259 44.1305 33.9371 44.6473 33.4851 45.2577C33.1947 44.8769 32.8579 44.2689 32.8691 43.5073L32.9299 39.5153C32.9355 39.1737 33.1243 38.8865 33.4355 38.7481C33.7499 38.6081 34.0931 38.6609 34.3531 38.8881C35.6491 40.0217 36.6955 41.6689 37.4635 43.7825L37.5867 44.1209L40.2931 44.1625L42.9995 44.2041L43.1331 43.8697C43.9659 41.7801 45.0619 40.1665 46.3923 39.0729C46.6595 38.8537 47.0035 38.8113 47.3139 38.9609C47.6211 39.1089 47.8011 39.4009 47.7963 39.7433L47.7347 43.7353C47.7227 44.4977 47.3675 45.0945 47.0651 45.4665C46.6323 44.8425 46.0595 44.3081 45.3755 43.9081L44.8483 44.8105C45.9195 45.4361 46.6531 46.4673 46.8611 47.6409C47.0363 48.6313 46.9827 49.4825 46.9819 49.4905L48.0259 49.5065C48.0283 49.4697 48.0899 48.5841 47.8907 47.4585C47.8283 47.1081 47.7283 46.7673 47.5955 46.4417C48.0307 46.0017 48.7603 45.0713 48.7803 43.7513L48.8411 39.7593C48.8523 39.0105 48.4411 38.3441 47.7675 38.0193L47.7683 38.0177Z" fill="#2E418E"/>
<path d="M45.0482 47.2813C44.6834 47.2757 44.3826 47.5669 44.377 47.9325C44.3714 48.2973 44.6626 48.5981 45.0282 48.6037C45.393 48.6093 45.6938 48.3181 45.6994 47.9525C45.705 47.5877 45.4138 47.2869 45.0482 47.2813Z" fill="#2E418E"/>
<path d="M35.4247 48.4572C35.7895 48.4628 36.0903 48.1716 36.0959 47.806C36.1015 47.4412 35.8103 47.1404 35.4447 47.1348C35.0799 47.1292 34.7791 47.4204 34.7735 47.786C34.7679 48.1508 35.0591 48.4516 35.4247 48.4572Z" fill="#2E418E"/>
<path d="M43.7337 48.6945C42.7673 47.9393 41.5273 47.5129 40.2417 47.4929C38.9561 47.4729 37.7041 47.8617 36.7153 48.5865C35.7209 49.3153 35.0513 50.3377 34.8281 51.4641L35.8537 51.6673C36.0257 50.7977 36.5513 50.0033 37.3337 49.4297C37.7121 49.1521 38.1393 48.9385 38.5953 48.7881C38.8065 49.2433 39.2001 49.5977 39.6849 49.7521L39.6545 51.7329L40.7001 51.7489L40.7305 49.7681C41.2201 49.6281 41.6241 49.2865 41.8489 48.8377C42.2993 49.0017 42.7209 49.2297 43.0897 49.5177C43.8545 50.1153 44.3553 50.9257 44.5009 51.8001L45.5321 51.6289C45.3433 50.4953 44.7049 49.4537 43.7337 48.6945Z" fill="#2E418E"/>
</svg>
